<?xml version="1.0" encoding="UTF-8"?>
<svg version="1.1" xmlns="http://www.w3.org/2000/svg" width="509" height="512">
<path d="M0 0 C167.97 0 335.94 0 509 0 C509 168.96 509 337.92 509 512 C341.03 512 173.06 512 0 512 C0 343.04 0 174.08 0 0 Z " fill="#FAFAFA" transform="translate(0,0)"/>
<path d="M0 0 C16.83 0 33.66 0 51 0 C51 5.61 51 11.22 51 17 C45.39 17 39.78 17 34 17 C34 28.22 34 39.44 34 51 C39.61 51 45.22 51 51 51 C51 56.61 51 62.22 51 68 C56.61 68 62.22 68 68 68 C68 79.22 68 90.44 68 102 C62.39 102 56.78 102 51 102 C51 113.22 51 124.44 51 136 C45.39 136 39.78 136 34 136 C34 124.78 34 113.56 34 102 C22.45 102 10.9 102 -1 102 C-0.67 107.61 -0.34 113.22 0 119 C5.61 119.33 11.22 119.66 17 120 C17 130.89 17 141.78 17 153 C28.22 153 39.44 153 51 153 C51 158.61 51 164.22 51 170 C45.39 170 39.78 170 34 170 C34 175.94 34 181.88 34 188 C50.83 188 67.66 188 85 188 C85 193.28 85 198.56 85 204 C79.72 204.33 74.44 204.66 69 205 C68.67 215.89 68.34 226.78 68 238 C62.72 238 57.44 238 52 238 C51.67 232.72 51.34 227.44 51 222 C42.585 221.505 42.585 221.505 34 221 C34 226.94 34 232.88 34 239 C28.39 239 22.78 239 17 239 C17 250.22 17 261.44 17 273 C11.39 273 5.78 273 0 273 C0 267.39 0 261.78 0 256 C-5.61 256 -11.22 256 -17 256 C-17 261.61 -17 267.22 -17 273 C-22.61 273 -28.22 273 -34 273 C-34 278.61 -34 284.22 -34 290 C-28.39 290 -22.78 290 -17 290 C-17 295.94 -17 301.88 -17 308 C-19.784375 308.020625 -22.56875 308.04125 -25.4375 308.0625 C-26.31591553 308.071604 -27.19433105 308.08070801 -28.09936523 308.09008789 C-30.06645974 308.09723091 -32.03353621 308.05031893 -34 308 C-35 307 -35 307 -35.09765625 303.40234375 C-35.09191272 301.91402745 -35.07889891 300.42573704 -35.0625 298.9375 C-35.041875 296.318125 -35.02125 293.69875 -35 291 C-40.28 291 -45.56 291 -51 291 C-50.96042843 296.22063275 -50.96042843 296.22063275 -50.90991211 301.44116211 C-50.90276055 303.29433759 -50.9497148 305.14749308 -51 307 C-52 308 -52 308 -55.81640625 308.09765625 C-57.39847047 308.09191138 -58.98051031 308.07889593 -60.5625 308.0625 C-63.346875 308.041875 -66.13125 308.02125 -69 308 C-69 302.39 -69 296.78 -69 291 C-80.22 291 -91.44 291 -103 291 C-103 279.45 -103 267.9 -103 256 C-97.39 256 -91.78 256 -86 256 C-86 239.17 -86 222.34 -86 205 C-80.39 205 -74.78 205 -69 205 C-69 210.28 -69 215.56 -69 221 C-67.17662109 220.98259766 -67.17662109 220.98259766 -65.31640625 220.96484375 C-63.73177236 220.95546722 -62.14713682 220.94636687 -60.5625 220.9375 C-59.76005859 220.92912109 -58.95761719 220.92074219 -58.13085938 220.91210938 C-56.08704779 220.9034857 -54.04316098 220.9477185 -52 221 C-51 222 -51 222 -50.90234375 225.59765625 C-50.90808728 227.08597255 -50.92110109 228.57426296 -50.9375 230.0625 C-50.958125 232.681875 -50.97875 235.30125 -51 238 C-45.72 238 -40.44 238 -35 238 C-35.03957157 232.77936725 -35.03957157 232.77936725 -35.09008789 227.55883789 C-35.09723945 225.70566241 -35.0502852 223.85250692 -35 222 C-34 221 -34 221 -30.40234375 220.90234375 C-28.91402745 220.90808728 -27.42573704 220.92110109 -25.9375 220.9375 C-23.318125 220.958125 -20.69875 220.97875 -18 221 C-18 215.72 -18 210.44 -18 205 C-29.22 205 -40.44 205 -52 205 C-52 187.84 -52 170.68 -52 153 C-63.22 153 -74.44 153 -86 153 C-86 158.94 -86 164.88 -86 171 C-80.39 171 -74.78 171 -69 171 C-69 176.61 -69 182.22 -69 188 C-74.94 188 -80.88 188 -87 188 C-87 193.28 -87 198.56 -87 204 C-91.95 204 -96.9 204 -102 204 C-102.495 195.09 -102.495 195.09 -103 186 C-108.94 186 -114.88 186 -121 186 C-121 191.94 -121 197.88 -121 204 C-126.61 204 -132.22 204 -138 204 C-138 187.17 -138 170.34 -138 153 C-132.39 153 -126.78 153 -121 153 C-121 147.39 -121 141.78 -121 136 C-115.39 136 -109.78 136 -104 136 C-104 125.11 -104 114.22 -104 103 C-108.95 103 -113.9 103 -119 103 C-119 108.61 -119 114.22 -119 120 C-121.97922593 120.02683987 -124.95821295 120.04676037 -127.9375 120.0625 C-128.78763672 120.07087891 -129.63777344 120.07925781 -130.51367188 120.08789062 C-131.32255859 120.09111328 -132.13144531 120.09433594 -132.96484375 120.09765625 C-133.7137085 120.10289307 -134.46257324 120.10812988 -135.23413086 120.11352539 C-137 120 -137 120 -138 119 C-138 107.78 -138 96.56 -138 85 C-109.29 85 -80.58 85 -51 85 C-51 90.61 -51 96.22 -51 102 C-45.72 102 -40.44 102 -35 102 C-35 96.39 -35 90.78 -35 85 C-17.84 85 -0.68 85 17 85 C17 79.39 17 73.78 17 68 C11.39 68 5.78 68 0 68 C0 56.78 0 45.56 0 34 C5.61 34 11.22 34 17 34 C17 28.39 17 22.78 17 17 C11.39 17 5.78 17 0 17 C0 11.39 0 5.78 0 0 Z " fill="#767778" transform="translate(141,58)"/>
<path d="M0 0 C5.94 0 11.88 0 18 0 C18 5.61 18 11.22 18 17 C29.22 17 40.44 17 52 17 C52 22.94 52 28.88 52 35 C57.61 35 63.22 35 69 35 C69 52.16 69 69.32 69 87 C74.61 87 80.22 87 86 87 C86 81.06 86 75.12 86 69 C91.94 69 97.88 69 104 69 C104 80.22 104 91.44 104 103 C109.28 103 114.56 103 120 103 C120 97.39 120 91.78 120 86 C125.94 86 131.88 86 138 86 C138 80.39 138 74.78 138 69 C143.61 69 149.22 69 155 69 C155 74.61 155 80.22 155 86 C160.61 86 166.22 86 172 86 C172 97.22 172 108.44 172 120 C160.78 120 149.56 120 138 120 C138 125.61 138 131.22 138 137 C126.45 137 114.9 137 103 137 C103 148.22 103 159.44 103 171 C97.39 171 91.78 171 86 171 C86.33 176.61 86.66 182.22 87 188 C95.415 188.495 95.415 188.495 104 189 C104 183.39 104 177.78 104 172 C109.61 172 115.22 172 121 172 C121 166.39 121 160.78 121 155 C126.61 155 132.22 155 138 155 C138 149.39 138 143.78 138 138 C149.22 138 160.44 138 172 138 C172 143.28 172 148.56 172 154 C166.39 154 160.78 154 155 154 C155 159.94 155 165.88 155 172 C160.61 172 166.22 172 172 172 C172 177.61 172 183.22 172 189 C166.39 189 160.78 189 155 189 C155 199.89 155 210.78 155 222 C149.39 222 143.78 222 138 222 C138 216.39 138 210.78 138 205 C132.39 205.33 126.78 205.66 121 206 C120.67 211.61 120.34 217.22 120 223 C125.94 223 131.88 223 138 223 C138 228.61 138 234.22 138 240 C120.84 240 103.68 240 86 240 C86 234.06 86 228.12 86 222 C80.72 222 75.44 222 70 222 C69.67 216.72 69.34 211.44 69 206 C63.72 205.67 58.44 205.34 53 205 C53 200.05 53 195.1 53 190 C58.61 190 64.22 190 70 190 C69.67 184.06 69.34 178.12 69 172 C52.17 171.67 35.34 171.34 18 171 C18 159.78 18 148.56 18 137 C12.39 137 6.78 137 1 137 C1 131.39 1 125.78 1 120 C6.61 120 12.22 120 18 120 C18 114.39 18 108.78 18 103 C-15.99 103 -49.98 103 -85 103 C-85 97.39 -85 91.78 -85 86 C-90.61 86 -96.22 86 -102 86 C-102 91.94 -102 97.88 -102 104 C-107.94 104 -113.88 104 -120 104 C-120 92.45 -120 80.9 -120 69 C-114.06 69 -108.12 69 -102 69 C-102 63.39 -102 57.78 -102 52 C-107.61 52 -113.22 52 -119 52 C-119 46.39 -119 40.78 -119 35 C-102.17 35 -85.34 35 -68 35 C-68 40.61 -68 46.22 -68 52 C-62.39 52 -56.78 52 -51 52 C-51 46.06 -51 40.12 -51 34 C-45.39 34 -39.78 34 -34 34 C-34 28.39 -34 22.78 -34 17 C-22.78 17 -11.56 17 0 17 C0 11.39 0 5.78 0 0 Z " fill="#050505" transform="translate(329,262)"/>
<path d="M0 0 C11.55 0 23.1 0 35 0 C35 11.22 35 22.44 35 34 C40.94 34 46.88 34 53 34 C53 23.11 53 12.22 53 1 C58.28 1 63.56 1 69 1 C69 6.61 69 12.22 69 18 C74.94 18 80.88 18 87 18 C87 23.28 87 28.56 87 34 C81.06 34 75.12 34 69 34 C69 45.55 69 57.1 69 69 C74.94 69 80.88 69 87 69 C87 63.06 87 57.12 87 51 C92.61 51 98.22 51 104 51 C104 56.94 104 62.88 104 69 C112.415 68.505 112.415 68.505 121 68 C121.33 62.72 121.66 57.44 122 52 C132.56 52 143.12 52 154 52 C154 57.28 154 62.56 154 68 C148.72 68 143.44 68 138 68 C138 73.94 138 79.88 138 86 C143.94 86 149.88 86 156 86 C156 80.39 156 74.78 156 69 C166.89 69 177.78 69 189 69 C189 74.61 189 80.22 189 86 C194.94 86 200.88 86 207 86 C207 80.39 207 74.78 207 69 C212.61 69 218.22 69 224 69 C224 80.22 224 91.44 224 103 C229.61 103 235.22 103 241 103 C241 97.39 241 91.78 241 86 C257.83 86 274.66 86 292 86 C292 91.61 292 97.22 292 103 C303.55 103 315.1 103 327 103 C327 108.28 327 113.56 327 119 C315.45 119 303.9 119 292 119 C292 124.61 292 130.22 292 136 C286.39 136 280.78 136 275 136 C275 141.94 275 147.88 275 154 C280.94 154 286.88 154 293 154 C293 148.39 293 142.78 293 137 C298.28 137 303.56 137 309 137 C309 148.22 309 159.44 309 171 C314.94 171 320.88 171 327 171 C327 176.61 327 182.22 327 188 C321.06 188 315.12 188 309 188 C309 193.61 309 199.22 309 205 C303.72 205 298.44 205 293 205 C293 193.78 293 182.56 293 171 C287.06 171 281.12 171 275 171 C275 176.94 275 182.88 275 189 C269.39 189 263.78 189 258 189 C258 171.84 258 154.68 258 137 C252.39 137 246.78 137 241 137 C241 131.06 241 125.12 241 119 C229.78 119 218.56 119 207 119 C207 113.39 207 107.78 207 102 C201.06 102 195.12 102 189 102 C189 107.61 189 113.22 189 119 C177.78 119 166.56 119 155 119 C155 124.61 155 130.22 155 136 C149.39 136 143.78 136 138 136 C138 141.94 138 147.88 138 154 C132.39 154 126.78 154 121 154 C121 148.39 121 142.78 121 137 C104.17 137 87.34 137 70 137 C70 142.61 70 148.22 70 154 C69.67 154 69.34 154 69 154 C69 148.39 69 142.78 69 137 C63.39 137 57.78 137 52 137 C52 131.72 52 126.44 52 121 C46.72 121 41.44 121 36 121 C36 126.28 36 131.56 36 137 C35.67 137 35.34 137 35 137 C35 131.06 35 125.12 35 119 C37.784375 118.979375 40.56875 118.95875 43.4375 118.9375 C44.31591553 118.928396 45.19433105 118.91929199 46.09936523 118.90991211 C48.06645974 118.90276909 50.03353621 118.94968107 52 119 C53 120 53 120 53.09765625 123.59765625 C53.09191272 125.08597255 53.07889891 126.57426296 53.0625 128.0625 C53.041875 130.681875 53.02125 133.30125 53 136 C58.28 136 63.56 136 69 136 C68.98839844 133.62941406 68.97679687 131.25882813 68.96484375 128.81640625 C68.95705304 126.52954238 68.95097636 124.24267996 68.94506836 121.95581055 C68.94002843 120.36205386 68.9331965 118.76830181 68.92456055 117.17456055 C68.91248001 114.88849747 68.90676845 112.60249533 68.90234375 110.31640625 C68.89718246 109.59973282 68.89202118 108.88305939 68.88670349 108.14466858 C68.88650737 106.42936328 68.93807993 104.71418734 69 103 C70 102 70 102 73.59765625 101.90234375 C75.08597255 101.90808728 76.57426296 101.92110109 78.0625 101.9375 C80.681875 101.958125 83.30125 101.97875 86 102 C86 96.72 86 91.44 86 86 C69.17 86 52.34 86 35 86 C35 80.06 35 74.12 35 68 C40.61 68 46.22 68 52 68 C52 62.39 52 56.78 52 51 C40.78 51 29.56 51 18 51 C18 40.11 18 29.22 18 18 C12.45026879 18.03957481 12.45026879 18.03957481 6.90063477 18.09008789 C4.93354026 18.09723091 2.96646379 18.05031893 1 18 C0.67 17.67 0.34 17.34 0 17 C0 11.39 0 5.78 0 0 Z " fill="#FBFAFB" transform="translate(140,160)"/>
<path d="M0 0 C39.93 0 79.86 0 121 0 C121 39.6 121 79.2 121 120 C81.07 120 41.14 120 0 120 C0 80.4 0 40.8 0 0 Z " fill="#F8F8F8" transform="translate(381,6)"/>
<path d="M0 0 C39.6 0 79.2 0 120 0 C120 39.6 120 79.2 120 120 C80.4 120 40.8 120 0 120 C0 80.4 0 40.8 0 0 Z " fill="#F1F1F1" transform="translate(4,382)"/>
<path d="M0 0 C19.614375 -0.020625 39.22875 -0.04125 59.4375 -0.0625 C65.64103271 -0.071604 71.84456543 -0.08070801 78.23608398 -0.09008789 C85.78527832 -0.09460449 85.78527832 -0.09460449 89.31434631 -0.09544373 C91.79013753 -0.09698383 94.26592797 -0.10051009 96.74171448 -0.10557556 C100.4820385 -0.11284867 104.2223165 -0.11390757 107.96264648 -0.11352539 C109.0738835 -0.1171235 110.18512053 -0.12072161 111.33003139 -0.12442875 C112.33059598 -0.12305125 113.33116056 -0.12167376 114.36204529 -0.12025452 C115.23867042 -0.12117631 116.11529554 -0.1220981 117.01848507 -0.12304783 C119 0 119 0 120 1 C120.09584998 2.54353131 120.1218807 4.09145108 120.12025452 5.63795471 C120.12232076 7.13880159 120.12232076 7.13880159 120.12442875 8.66996861 C120.11903159 10.33682414 120.11903159 10.33682414 120.11352539 12.03735352 C120.11364593 13.21702415 120.11376646 14.39669477 120.11389065 15.612113 C120.11314106 19.45106291 120.10551075 23.28996496 120.09765625 27.12890625 C120.09618697 29.49084449 120.09516618 31.85278305 120.09460449 34.21472168 C120.08934996 42.9973194 120.0753889 51.77991016 120.0625 60.5625 C120.041875 80.176875 120.02125 99.79125 120 120 C80.4 120 40.8 120 0 120 C0 80.4 0 40.8 0 0 Z " fill="#F1F0F0" transform="translate(4,6)"/>
<path d="M0 0 C5.61 0 11.22 0 17 0 C17 16.83 17 33.66 17 51 C22.61 51 28.22 51 34 51 C34 56.94 34 62.88 34 69 C28.39 69 22.78 69 17 69 C17 79.89 17 90.78 17 102 C28.22 102 39.44 102 51 102 C51 107.61 51 113.22 51 119 C73.44 119 95.88 119 119 119 C119 113.72 119 108.44 119 103 C113.39 103 107.78 103 102 103 C101.9690625 98.8234375 101.9690625 98.8234375 101.9375 94.5625 C101.928396 93.68408447 101.91929199 92.80566895 101.90991211 91.90063477 C101.90276909 89.93354026 101.94968107 87.96646379 102 86 C103 85 103 85 106.23461914 84.88647461 C107.66814126 84.88663369 109.10166912 84.89232593 110.53515625 84.90234375 C111.66503212 84.90446617 111.66503212 84.90446617 112.81773376 84.90663147 C115.2326956 84.91224624 117.64756601 84.92480117 120.0625 84.9375 C121.69596221 84.9425131 123.32942586 84.94707634 124.96289062 84.95117188 C128.9753243 84.96137125 132.98755936 84.98094355 137 85 C137 90.61 137 96.22 137 102 C142.61 102 148.22 102 154 102 C154 107.94 154 113.88 154 120 C142.78 120 131.56 120 120 120 C120 125.28 120 130.56 120 136 C131.22 136 142.44 136 154 136 C154 141.61 154 147.22 154 153 C159.61 153 165.22 153 171 153 C171 158.94 171 164.88 171 171 C165.39 171 159.78 171 154 171 C154 187.83 154 204.66 154 222 C148.06 222 142.12 222 136 222 C136 210.78 136 199.56 136 188 C130.72 188 125.44 188 120 188 C120 193.61 120 199.22 120 205 C114.06 205 108.12 205 102 205 C102 199.06 102 193.12 102 187 C107.61 187 113.22 187 119 187 C119 181.39 119 175.78 119 170 C130.55 170 142.1 170 154 170 C154 164.72 154 159.44 154 154 C142.45 154 130.9 154 119 154 C119 148.39 119 142.78 119 137 C102.17 137 85.34 137 68 137 C68 142.61 68 148.22 68 154 C62.39 154 56.78 154 51 154 C51 142.78 51 131.56 51 120 C45.39 120 39.78 120 34 120 C34 125.61 34 131.22 34 137 C28.06 137 22.12 137 16 137 C16 131.39 16 125.78 16 120 C5.11 120 -5.78 120 -17 120 C-17 125.61 -17 131.22 -17 137 C-22.94 137 -28.88 137 -35 137 C-35 131.06 -35 125.12 -35 119 C-29.72 119 -24.44 119 -19 119 C-19 113.72 -19 108.44 -19 103 C-29.56 103 -40.12 103 -51 103 C-51 108.28 -51 113.56 -51 119 C-52 120 -52 120 -55.81640625 120.09765625 C-57.39847047 120.09191138 -58.98051031 120.07889593 -60.5625 120.0625 C-63.346875 120.041875 -66.13125 120.02125 -69 120 C-69 114.06 -69 108.12 -69 102 C-74.61 102 -80.22 102 -86 102 C-86 107.94 -86 113.88 -86 120 C-91.94 120 -97.88 120 -104 120 C-104 108.45 -104 96.9 -104 85 C-98.06 85 -92.12 85 -86 85 C-86.33 79.72 -86.66 74.44 -87 69 C-92.28 68.67 -97.56 68.34 -103 68 C-103 62.72 -103 57.44 -103 52 C-80.89 52 -58.78 52 -36 52 C-36 57.28 -36 62.56 -36 68 C-30.06 68 -24.12 68 -18 68 C-18 79.22 -18 90.44 -18 102 C-12.39 102 -6.78 102 -1 102 C-1 90.78 -1 79.56 -1 68 C4.61 68 10.22 68 16 68 C16 62.72 16 57.44 16 52 C4.78 52 -6.44 52 -18 52 C-18 46.06 -18 40.12 -18 34 C-12.06 34 -6.12 34 0 34 C0 22.78 0 11.56 0 0 Z " fill="#040404" transform="translate(313,109)"/>
<path d="M0 0 C5.94 0 11.88 0 18 0 C18 5.61 18 11.22 18 17 C29.22 17 40.44 17 52 17 C52 17.33 52 17.66 52 18 C40.78 18 29.56 18 18 18 C18 23.28 18 28.56 18 34 C23.61 34 29.22 34 35 34 C35 39.94 35 45.88 35 52 C29.39 52 23.78 52 18 52 C18 57.61 18 63.22 18 69 C6.45 69 -5.1 69 -17 69 C-17 74.61 -17 80.22 -17 86 C-22.94 86 -28.88 86 -35 86 C-35 80.72 -35 75.44 -35 70 C-39.95 70 -44.9 70 -50 70 C-50 75.28 -50 80.56 -50 86 C-67.16 86 -84.32 86 -102 86 C-102 91.94 -102 97.88 -102 104 C-107.94 104 -113.88 104 -120 104 C-120 92.45 -120 80.9 -120 69 C-114.06 69 -108.12 69 -102 69 C-102 63.39 -102 57.78 -102 52 C-107.61 52 -113.22 52 -119 52 C-119 46.39 -119 40.78 -119 35 C-102.17 35 -85.34 35 -68 35 C-68 40.61 -68 46.22 -68 52 C-62.39 52 -56.78 52 -51 52 C-51 46.06 -51 40.12 -51 34 C-45.39 34 -39.78 34 -34 34 C-34 28.39 -34 22.78 -34 17 C-22.78 17 -11.56 17 0 17 C0 11.39 0 5.78 0 0 Z " fill="#707172" transform="translate(329,262)"/>
<path d="M0 0 C5.61 0 11.22 0 17 0 C17 5.61 17 11.22 17 17 C22.61 17 28.22 17 34 17 C34 11.39 34 5.78 34 0 C39.61 0 45.22 0 51 0 C51 11.22 51 22.44 51 34 C62.55 34 74.1 34 86 34 C86 39.94 86 45.88 86 52 C80.39 52 74.78 52 69 52 C69 62.89 69 73.78 69 85 C85.5 85 102 85 119 85 C119 79.72 119 74.44 119 69 C113.72 69 108.44 69 103 69 C103 63.06 103 57.12 103 51 C108.61 51 114.22 51 120 51 C120 56.61 120 62.22 120 68 C125.61 68 131.22 68 137 68 C137 73.94 137 79.88 137 86 C142.61 86 148.22 86 154 86 C154 91.28 154 96.56 154 102 C146.08 102.495 146.08 102.495 138 103 C137.67 108.61 137.34 114.22 137 120 C125.78 120 114.56 120 103 120 C103 125.61 103 131.22 103 137 C97.39 137 91.78 137 86 137 C86 142.61 86 148.22 86 154 C80.39 154 74.78 154 69 154 C69 142.78 69 131.56 69 120 C74.61 120 80.22 120 86 120 C86 114.39 86 108.78 86 103 C80.45026879 103.03957481 80.45026879 103.03957481 74.90063477 103.09008789 C72.93354026 103.09723091 70.96646379 103.05031893 69 103 C68 102 68 102 67.90234375 98.40234375 C67.90808728 96.91402745 67.92110109 95.42573704 67.9375 93.9375 C67.958125 91.318125 67.97875 88.69875 68 86 C62.39 86 56.78 86 51 86 C51 80.06 51 74.12 51 68 C45.39 68 39.78 68 34 68 C34 56.78 34 45.56 34 34 C28.39 34 22.78 34 17 34 C17 39.61 17 45.22 17 51 C11.39 51 5.78 51 0 51 C0 34.17 0 17.34 0 0 Z " fill="#050505" transform="translate(141,348)"/>
<path d="M0 0 C0.33 0 0.66 0 1 0 C1 5.61 1 11.22 1 17 C6.61 17 12.22 17 18 17 C18 28.22 18 39.44 18 51 C21.66996094 50.98839844 25.33992188 50.97679687 29.12109375 50.96484375 C32.65893467 50.95705448 36.19677464 50.95097698 39.73461914 50.94506836 C42.20142033 50.94002644 44.66821852 50.93319309 47.13500977 50.92456055 C50.67204529 50.91248875 54.20904145 50.90677044 57.74609375 50.90234375 C58.85649521 50.89718246 59.96689667 50.89202118 61.11094666 50.88670349 C62.64242088 50.88659019 62.64242088 50.88659019 64.20483398 50.88647461 C65.10862289 50.884254 66.0124118 50.88203339 66.94358826 50.87974548 C69 51 69 51 70 52 C70.08631874 53.34267413 70.10706473 54.68974322 70.09765625 56.03515625 C70.09282227 57.24848633 70.09282227 57.24848633 70.08789062 58.48632812 C70.07532227 59.7615332 70.07532227 59.7615332 70.0625 61.0625 C70.05798828 61.91650391 70.05347656 62.77050781 70.04882812 63.65039062 C70.03700373 65.76695663 70.01906769 67.88348685 70 70 C64.39 70 58.78 70 53 70 C53 74.95 53 79.9 53 85 C54.14339844 84.98839844 55.28679687 84.97679687 56.46484375 84.96484375 C57.95572754 84.95546712 59.44661309 84.94636679 60.9375 84.9375 C61.69224609 84.92912109 62.44699219 84.92074219 63.22460938 84.91210938 C65.14994313 84.90347559 67.07535581 84.94775667 69 85 C70 86 70 86 70.09765625 89.59765625 C70.09191272 91.08597255 70.07889891 92.57426296 70.0625 94.0625 C70.041875 96.681875 70.02125 99.30125 70 102 C75.28 102 80.56 102 86 102 C86 102.33 86 102.66 86 103 C80.72 103 75.44 103 70 103 C70 108.61 70 114.22 70 120 C64.06 120 58.12 120 52 120 C52 114.39 52 108.78 52 103 C40.78 103 29.56 103 18 103 C18 108.61 18 114.22 18 120 C12.06 120 6.12 120 0 120 C0 114.39 0 108.78 0 103 C-5.28 103 -10.56 103 -16 103 C-16 108.61 -16 114.22 -16 120 C-21.94 120 -27.88 120 -34 120 C-34 114.06 -34 108.12 -34 102 C-28.39 102 -22.78 102 -17 102 C-17 96.72 -17 91.44 -17 86 C-22.61 86 -28.22 86 -34 86 C-34 80.39 -34 74.78 -34 69 C-39.28 69 -44.56 69 -50 69 C-50 68.67 -50 68.34 -50 68 C-44.72 68 -39.44 68 -34 68 C-34 62.72 -34 57.44 -34 52 C-39.61 52 -45.22 52 -51 52 C-51 46.39 -51 40.78 -51 35 C-50.67 35 -50.34 35 -50 35 C-50 40.28 -50 45.56 -50 51 C-45.05 51 -40.1 51 -35 51 C-35.01160156 49.85660156 -35.02320313 48.71320313 -35.03515625 47.53515625 C-35.04453288 46.04427246 -35.05363321 44.55338691 -35.0625 43.0625 C-35.07087891 42.30775391 -35.07925781 41.55300781 -35.08789062 40.77539062 C-35.09652441 38.85005687 -35.05224333 36.92464419 -35 35 C-34 34 -34 34 -30.18359375 33.90234375 C-28.60152953 33.90808862 -27.01948969 33.92110407 -25.4375 33.9375 C-22.653125 33.958125 -19.86875 33.97875 -17 34 C-17 28.39 -17 22.78 -17 17 C-11.39 17 -5.78 17 0 17 C0 11.39 0 5.78 0 0 Z " fill="#898B8C" transform="translate(329,382)"/>
<path d="M0 0 C39.93 0 79.86 0 121 0 C121 39.6 121 79.2 121 120 C81.07 120 41.14 120 0 120 C0 80.4 0 40.8 0 0 Z M17 17 C16.979375 31.004375 16.95875 45.00875 16.9375 59.4375 C16.928396 63.86599365 16.91929199 68.2944873 16.90991211 72.85717773 C16.90656851 76.81293449 16.90656851 76.81293449 16.90455627 80.76869202 C16.90301663 82.53615063 16.89949129 84.30360816 16.89442444 86.07106018 C16.88714771 88.74197221 16.88609256 91.41281984 16.88647461 94.08374023 C16.8828765 94.87645293 16.87927839 95.66916563 16.87557125 96.48589993 C16.55177659 100.03727449 16.55177659 100.03727449 18 103 C20.64741882 103.09511403 23.26855457 103.12554328 25.91625977 103.11352539 C27.18024424 103.11370619 27.18024424 103.11370619 28.46976376 103.11389065 C31.21033767 103.11314142 33.95084443 103.10551277 36.69140625 103.09765625 C38.37821418 103.09618686 40.06502257 103.09516613 41.75183105 103.09460449 C48.02206097 103.08935126 54.29228114 103.07539018 60.5625 103.0625 C74.566875 103.041875 88.57125 103.02125 103 103 C103 74.62 103 46.24 103 17 C74.62 17 46.24 17 17 17 Z " fill="#09090A" transform="translate(381,6)"/>
<path d="M0 0 C16.83 0 33.66 0 51 0 C51 5.61 51 11.22 51 17 C45.39 17 39.78 17 34 17 C34 28.22 34 39.44 34 51 C39.61 51 45.22 51 51 51 C51 56.61 51 62.22 51 68 C56.61 68 62.22 68 68 68 C68 79.22 68 90.44 68 102 C62.39 102 56.78 102 51 102 C51 113.22 51 124.44 51 136 C45.39 136 39.78 136 34 136 C34 124.78 34 113.56 34 102 C22.45 102 10.9 102 -1 102 C-0.505 110.415 -0.505 110.415 0 119 C5.61 119.33 11.22 119.66 17 120 C17 130.89 17 141.78 17 153 C11.39 153 5.78 153 0 153 C0 147.39 0 141.78 0 136 C-11.22 136 -22.44 136 -34 136 C-34 130.72 -34 125.44 -34 120 C-28.39 120 -22.78 120 -17 120 C-17 114.06 -17 108.12 -17 102 C-22.61 102 -28.22 102 -34 102 C-34 96.72 -34 91.44 -34 86 C-17.17 86 -0.34 86 17 86 C17 80.06 17 74.12 17 68 C11.39 68 5.78 68 0 68 C0 56.78 0 45.56 0 34 C5.61 34 11.22 34 17 34 C17 28.39 17 22.78 17 17 C11.39 17 5.78 17 0 17 C0 11.39 0 5.78 0 0 Z " fill="#040404" transform="translate(141,58)"/>
<path d="M0 0 C39.6 0 79.2 0 120 0 C120 39.6 120 79.2 120 120 C80.4 120 40.8 120 0 120 C0 80.4 0 40.8 0 0 Z M16 17 C16 45.38 16 73.76 16 103 C44.71 103 73.42 103 103 103 C103 74.62 103 46.24 103 17 C74.29 17 45.58 17 16 17 Z " fill="#050505" transform="translate(4,382)"/>
<path d="M0 0 C19.614375 -0.020625 39.22875 -0.04125 59.4375 -0.0625 C65.64103271 -0.071604 71.84456543 -0.08070801 78.23608398 -0.09008789 C85.78527832 -0.09460449 85.78527832 -0.09460449 89.31434631 -0.09544373 C91.79013753 -0.09698383 94.26592797 -0.10051009 96.74171448 -0.10557556 C100.4820385 -0.11284867 104.2223165 -0.11390757 107.96264648 -0.11352539 C109.0738835 -0.1171235 110.18512053 -0.12072161 111.33003139 -0.12442875 C112.33059598 -0.12305125 113.33116056 -0.12167376 114.36204529 -0.12025452 C115.23867042 -0.12117631 116.11529554 -0.1220981 117.01848507 -0.12304783 C119 0 119 0 120 1 C120.09584998 2.54353131 120.1218807 4.09145108 120.12025452 5.63795471 C120.12232076 7.13880159 120.12232076 7.13880159 120.12442875 8.66996861 C120.11903159 10.33682414 120.11903159 10.33682414 120.11352539 12.03735352 C120.11364593 13.21702415 120.11376646 14.39669477 120.11389065 15.612113 C120.11314106 19.45106291 120.10551075 23.28996496 120.09765625 27.12890625 C120.09618697 29.49084449 120.09516618 31.85278305 120.09460449 34.21472168 C120.08934996 42.9973194 120.0753889 51.77991016 120.0625 60.5625 C120.041875 80.176875 120.02125 99.79125 120 120 C80.4 120 40.8 120 0 120 C0 80.4 0 40.8 0 0 Z M16 17 C16 45.38 16 73.76 16 103 C44.71 103 73.42 103 103 103 C103 74.62 103 46.24 103 17 C74.29 17 45.58 17 16 17 Z " fill="#010101" transform="translate(4,6)"/>
<path d="M0 0 C11.22 0 22.44 0 34 0 C34 5.61 34 11.22 34 17 C28.39 17 22.78 17 17 17 C17 22.94 17 28.88 17 35 C33.83 35 50.66 35 68 35 C68 40.28 68 45.56 68 51 C60.08 51.495 60.08 51.495 52 52 C51.67 62.89 51.34 73.78 51 85 C45.72 85 40.44 85 35 85 C34.67 79.72 34.34 74.44 34 69 C28.39 68.67 22.78 68.34 17 68 C17 73.94 17 79.88 17 86 C11.39 86 5.78 86 0 86 C0 80.06 0 74.12 0 68 C-11.22 68 -22.44 68 -34 68 C-34 62.39 -34 56.78 -34 51 C-45.22 51 -56.44 51 -68 51 C-68 34.5 -68 18 -68 1 C-57.11 1 -46.22 1 -35 1 C-35 6.28 -35 11.56 -35 17 C-40.28 17.33 -45.56 17.66 -51 18 C-51.33 23.61 -51.66 29.22 -52 35 C-46.06 35 -40.12 35 -34 35 C-34 29.39 -34 23.78 -34 18 C-28.72 18 -23.44 18 -18 18 C-18 23.61 -18 29.22 -18 35 C-12.06 35 -6.12 35 0 35 C0 23.45 0 11.9 0 0 Z " fill="#030303" transform="translate(158,211)"/>
<path d="M0 0 C22.77 0 45.54 0 69 0 C69 5.61 69 11.22 69 17 C74.61 17 80.22 17 86 17 C86 22.61 86 28.22 86 34 C80.39 34 74.78 34 69 34 C69 45.55 69 57.1 69 69 C74.61 69 80.22 69 86 69 C86 74.61 86 80.22 86 86 C74.78 86 63.56 86 52 86 C52 80.39 52 74.78 52 69 C46.39 69 40.78 69 35 69 C35 63.39 35 57.78 35 52 C29.39 52 23.78 52 18 52 C18 57.61 18 63.22 18 69 C12.06 69 6.12 69 0 69 C0 57.45 0 45.9 0 34 C5.61 34 11.22 34 17 34 C17 28.72 17 23.44 17 18 C11.39 18 5.78 18 0 18 C0 12.06 0 6.12 0 0 Z " fill="#09090A" transform="translate(209,6)"/>
<path d="M0 0 C5.61 0 11.22 0 17 0 C17 5.94 17 11.88 17 18 C22.61 18 28.22 18 34 18 C34 23.28 34 28.56 34 34 C39.61 34 45.22 34 51 34 C51 39.61 51 45.22 51 51 C56.94 51 62.88 51 69 51 C69 56.61 69 62.22 69 68 C63.39 68 57.78 68 52 68 C52 73.61 52 79.22 52 85 C57.61 85 63.22 85 69 85 C69 90.94 69 96.88 69 103 C66.215625 103.020625 63.43125 103.04125 60.5625 103.0625 C59.68408447 103.071604 58.80566895 103.08070801 57.90063477 103.09008789 C55.93354026 103.09723091 53.96646379 103.05031893 52 103 C51 102 51 102 50.90234375 98.40234375 C50.90808728 96.91402745 50.92110109 95.42573704 50.9375 93.9375 C50.958125 91.318125 50.97875 88.69875 51 86 C45.72 86 40.44 86 35 86 C35.03957157 91.22063275 35.03957157 91.22063275 35.09008789 96.44116211 C35.09723945 98.29433759 35.0502852 100.14749308 35 102 C34 103 34 103 30.18359375 103.09765625 C28.60152953 103.09191138 27.01948969 103.07889593 25.4375 103.0625 C22.653125 103.041875 19.86875 103.02125 17 103 C17 97.39 17 91.78 17 86 C5.78 86 -5.44 86 -17 86 C-17 74.45 -17 62.9 -17 51 C-11.39 51 -5.78 51 0 51 C0 34.17 0 17.34 0 0 Z " fill="#040404" transform="translate(55,263)"/>
<path d="M0 0 C22.11 0 44.22 0 67 0 C67 5.28 67 10.56 67 16 C72.94 16 78.88 16 85 16 C85 27.22 85 38.44 85 50 C90.61 50 96.22 50 102 50 C102 50.33 102 50.66 102 51 C96.72 51 91.44 51 86 51 C86 56.28 86 61.56 86 67 C97.22 67 108.44 67 120 67 C120 72.61 120 78.22 120 84 C125.28 84 130.56 84 136 84 C136 78.72 136 73.44 136 68 C136.33 68 136.66 68 137 68 C137 73.61 137 79.22 137 85 C131.06 85 125.12 85 119 85 C119 79.39 119 73.78 119 68 C108.11 68 97.22 68 86 68 C86 73.61 86 79.22 86 85 C80.06 85 74.12 85 68 85 C68 79.06 68 73.12 68 67 C73.28 67 78.56 67 84 67 C84 61.72 84 56.44 84 51 C73.44 51 62.88 51 52 51 C52 56.28 52 61.56 52 67 C51 68 51 68 47.18359375 68.09765625 C45.60152953 68.09191138 44.01948969 68.07889593 42.4375 68.0625 C39.653125 68.041875 36.86875 68.02125 34 68 C34 62.06 34 56.12 34 50 C28.39 50 22.78 50 17 50 C17 55.94 17 61.88 17 68 C11.06 68 5.12 68 -1 68 C-1 56.45 -1 44.9 -1 33 C4.94 33 10.88 33 17 33 C16.67 27.72 16.34 22.44 16 17 C10.72 16.67 5.44 16.34 0 16 C0 10.72 0 5.44 0 0 Z " fill="#050505" transform="translate(210,161)"/>
<path d="M0 0 C5.28 0 10.56 0 16 0 C16 5.61 16 11.22 16 17 C21.61 17 27.22 17 33 17 C33 22.28 33 27.56 33 33 C25.08 33.495 25.08 33.495 17 34 C16.67 39.61 16.34 45.22 16 51 C4.78 51 -6.44 51 -18 51 C-18 56.61 -18 62.22 -18 68 C-23.61 68 -29.22 68 -35 68 C-35 73.61 -35 79.22 -35 85 C-40.61 85 -46.22 85 -52 85 C-52 73.78 -52 62.56 -52 51 C-46.39 51 -40.78 51 -35 51 C-35 45.39 -35 39.78 -35 34 C-40.61 34 -46.22 34 -52 34 C-52 28.39 -52 22.78 -52 17 C-34.84 17 -17.68 17 0 17 C0 11.39 0 5.78 0 0 Z " fill="#050505" transform="translate(262,417)"/>
<path d="M0 0 C11.22 0 22.44 0 34 0 C34 5.61 34 11.22 34 17 C39.61 17 45.22 17 51 17 C51 11.39 51 5.78 51 0 C56.94 0 62.88 0 69 0 C69 5.61 69 11.22 69 17 C74.28 17 79.56 17 85 17 C85 11.39 85 5.78 85 0 C90.94 0 96.88 0 103 0 C103 5.94 103 11.88 103 18 C97.39 18 91.78 18 86 18 C86.03957157 23.22063275 86.03957157 23.22063275 86.09008789 28.44116211 C86.09723945 30.29433759 86.0502852 32.14749308 86 34 C85 35 85 35 81.85717773 35.11352539 C80.46597304 35.11327441 79.07476209 35.10771709 77.68359375 35.09765625 C77.03588013 35.09664917 76.3881665 35.09564209 75.7208252 35.09460449 C73.29303221 35.08935843 70.86526439 35.07539725 68.4375 35.0625 C60.3009375 35.0315625 60.3009375 35.0315625 52 35 C52 45.89 52 56.78 52 68 C46.06 68 40.12 68 34 68 C34 62.39 34 56.78 34 51 C28.39 51 22.78 51 17 51 C17 39.78 17 28.56 17 17 C11.39 17 5.78 17 0 17 C0 11.39 0 5.78 0 0 Z " fill="#050505" transform="translate(347,143)"/>
<path d="M0 0 C5.28 0 10.56 0 16 0 C16 11.22 16 22.44 16 34 C33.16 34 50.32 34 68 34 C68 39.61 68 45.22 68 51 C62.39 51 56.78 51 51 51 C51 56.28 51 61.56 51 67 C45.39 67 39.78 67 34 67 C34 61.72 34 56.44 34 51 C28.06 51 22.12 51 16 51 C16 61.89 16 72.78 16 84 C10.72 84 5.44 84 0 84 C0 78.39 0 72.78 0 67 C-5.61 67 -11.22 67 -17 67 C-17 61.72 -17 56.44 -17 51 C-11.39 51 -5.78 51 0 51 C-0.33 45.39 -0.66 39.78 -1 34 C-6.28 33.67 -11.56 33.34 -17 33 C-17 27.72 -17 22.44 -17 17 C-11.72 16.67 -6.44 16.34 -1 16 C-0.67 10.72 -0.34 5.44 0 0 Z " fill="#FCFCFC" transform="translate(330,400)"/>
<path d="M0 0 C17.16 0 34.32 0 52 0 C52 17.16 52 34.32 52 52 C34.84 52 17.68 52 0 52 C0 34.84 0 17.68 0 0 Z " fill="#080809" transform="translate(415,40)"/>
<path d="M0 0 C16.83 0 33.66 0 51 0 C51 5.61 51 11.22 51 17 C56.61 17 62.22 17 68 17 C68 22.61 68 28.22 68 34 C56.78 34 45.56 34 34 34 C34 39.61 34 45.22 34 51 C28.39 51 22.78 51 17 51 C17 56.94 17 62.88 17 69 C11.06 69 5.12 69 -1 69 C-1 57.45 -1 45.9 -1 34 C4.94 34 10.88 34 17 34 C17 28.39 17 22.78 17 17 C11.39 17 5.78 17 0 17 C0 11.39 0 5.78 0 0 Z " fill="#070708" transform="translate(210,297)"/>
<path d="M0 0 C16.83 0 33.66 0 51 0 C51 16.83 51 33.66 51 51 C34.17 51 17.34 51 0 51 C0 34.17 0 17.34 0 0 Z " fill="#F9F9F9" transform="translate(364,365)"/>
<path d="M0 0 C11.22 0 22.44 0 34 0 C34 5.61 34 11.22 34 17 C39.61 17 45.22 17 51 17 C51 22.61 51 28.22 51 34 C45.39 34 39.78 34 34 34 C34 39.28 34 44.56 34 50 C28.39 50 22.78 50 17 50 C17 61.55 17 73.1 17 85 C11.39 85 5.78 85 0 85 C0 56.95 0 28.9 0 0 Z " fill="#050505" transform="translate(141,417)"/>
<path d="M0 0 C11.22 0 22.44 0 34 0 C34 17.16 34 34.32 34 52 C45.22 52 56.44 52 68 52 C68 57.28 68 62.56 68 68 C60.08 68.495 60.08 68.495 52 69 C51.67 74.28 51.34 79.56 51 85 C45.72 85 40.44 85 35 85 C34.67 79.72 34.34 74.44 34 69 C28.39 68.67 22.78 68.34 17 68 C17 62.72 17 57.44 17 52 C11.39 52 5.78 52 0 52 C0 46.39 0 40.78 0 35 C5.61 35 11.22 35 17 35 C17 29.39 17 23.78 17 18 C11.39 18 5.78 18 0 18 C0 12.06 0 6.12 0 0 Z " fill="#FAFAFA" transform="translate(55,211)"/>
<path d="M0 0 C16.83 0 33.66 0 51 0 C51 16.5 51 33 51 50 C34.17 50 17.34 50 0 50 C0 33.5 0 17 0 0 Z " fill="#020202" transform="translate(38,417)"/>
<path d="M0 0 C16.83 0 33.66 0 51 0 C51 16.5 51 33 51 50 C34.17 50 17.34 50 0 50 C0 33.5 0 17 0 0 Z " fill="#020202" transform="translate(38,41)"/>
<path d="M0 0 C28.05 0 56.1 0 85 0 C85 5.28 85 10.56 85 16 C79.39 16 73.78 16 68 16 C68 21.61 68 27.22 68 33 C62.39 33 56.78 33 51 33 C51 38.61 51 44.22 51 50 C45.39 50 39.78 50 34 50 C34 38.78 34 27.56 34 16 C28.06 16 22.12 16 16 16 C16 21.61 16 27.22 16 33 C10.72 33 5.44 33 0 33 C0 22.11 0 11.22 0 0 Z " fill="#030303" transform="translate(4,144)"/>
<path d="M0 0 C16.83 0 33.66 0 51 0 C51 5.61 51 11.22 51 17 C45.39 17 39.78 17 34 17 C34 33.83 34 50.66 34 68 C22.78 68 11.56 68 0 68 C0 56.78 0 45.56 0 34 C5.61 34 11.22 34 17 34 C17 28.39 17 22.78 17 17 C11.39 17 5.78 17 0 17 C0 11.39 0 5.78 0 0 Z " fill="#070707" transform="translate(141,58)"/>
<path d="M0 0 C5.61 0 11.22 0 17 0 C17 5.94 17 11.88 17 18 C22.61 18 28.22 18 34 18 C34 23.61 34 29.22 34 35 C28.06 35 22.12 35 16 35 C16 40.28 16 45.56 16 51 C11.05 51 6.1 51 1 51 C0.505 42.09 0.505 42.09 0 33 C-5.94 33 -11.88 33 -18 33 C-18 38.94 -18 44.88 -18 51 C-23.28 51 -28.56 51 -34 51 C-34 34.5 -34 18 -34 1 C-28.72 1 -23.44 1 -18 1 C-17.505 8.92 -17.505 8.92 -17 17 C-11.39 17.33 -5.78 17.66 0 18 C0 12.06 0 6.12 0 0 Z " fill="#040404" transform="translate(38,211)"/>
<path d="M0 0 C0.33 0 0.66 0 1 0 C1 5.28 1 10.56 1 16 C12.22 16 23.44 16 35 16 C35 33.16 35 50.32 35 68 C29.39 68 23.78 68 18 68 C18 62.39 18 56.78 18 51 C6.45 51 -5.1 51 -17 51 C-17 45.39 -17 39.78 -17 34 C-22.61 34 -28.22 34 -34 34 C-34 28.72 -34 23.44 -34 18 C-39.61 18 -45.22 18 -51 18 C-51 17.34 -51 16.68 -51 16 C-48.18743719 15.97315688 -45.37512759 15.95323812 -42.5625 15.9375 C-41.76005859 15.92912109 -40.95761719 15.92074219 -40.13085938 15.91210938 C-38.08704779 15.9034857 -36.04316098 15.9477185 -34 16 C-33 17 -33 17 -32.90234375 20.59765625 C-32.90808728 22.08597255 -32.92110109 23.57426296 -32.9375 25.0625 C-32.958125 27.681875 -32.97875 30.30125 -33 33 C-27.72 33 -22.44 33 -17 33 C-17.03957157 27.77936725 -17.03957157 27.77936725 -17.09008789 22.55883789 C-17.09723945 20.70566241 -17.0502852 18.85250692 -17 17 C-16 16 -16 16 -12.40234375 15.90234375 C-10.91402745 15.90808728 -9.42573704 15.92110109 -7.9375 15.9375 C-5.318125 15.958125 -2.69875 15.97875 0 16 C0 10.72 0 5.44 0 0 Z " fill="#7C7D7E" transform="translate(123,263)"/>
<path d="M0 0 C5.28 0 10.56 0 16 0 C16 16.83 16 33.66 16 51 C10.72 51 5.44 51 0 51 C0 67.83 0 84.66 0 102 C-5.61 102 -11.22 102 -17 102 C-17 79.56 -17 57.12 -17 34 C-11.39 34 -5.78 34 0 34 C0 22.78 0 11.56 0 0 Z " fill="#060606" transform="translate(21,263)"/>
<path d="M0 0 C5.28 0 10.56 0 16 0 C16 5.28 16 10.56 16 16 C27.55 16 39.1 16 51 16 C51 21.94 51 27.88 51 34 C56.28 34 61.56 34 67 34 C67 44.89 67 55.78 67 67 C62.05 67 57.1 67 52 67 C51.67 61.72 51.34 56.44 51 51 C45.39 50.67 39.78 50.34 34 50 C34 44.39 34 38.78 34 33 C22.78 33 11.56 33 0 33 C0 22.11 0 11.22 0 0 Z " fill="#FBFCFC" transform="translate(90,178)"/>
<path d="M0 0 C5.94 0 11.88 0 18 0 C18 11.22 18 22.44 18 34 C29.55 34 41.1 34 53 34 C53 28.72 53 23.44 53 18 C58.28 18 63.56 18 69 18 C69 28.89 69 39.78 69 51 C52.17 51 35.34 51 18 51 C18 56.94 18 62.88 18 69 C15.215625 69.020625 12.43125 69.04125 9.5625 69.0625 C8.68408447 69.071604 7.80566895 69.08070801 6.90063477 69.09008789 C4.93354026 69.09723091 2.96646379 69.05031893 1 69 C0 68 0 68 -0.09765625 64.40234375 C-0.09191272 62.91402745 -0.07889891 61.42573704 -0.0625 59.9375 C-0.041875 57.318125 -0.02125 54.69875 0 52 C-5.28 52 -10.56 52 -16 52 C-16 68.5 -16 85 -16 102 C-16.33 102 -16.66 102 -17 102 C-17 85.17 -17 68.34 -17 51 C-11.39 51 -5.78 51 0 51 C0 45.39 0 39.78 0 34 C5.61 34 11.22 34 17 34 C17 23.11 17 12.22 17 1 C12.05 1 7.1 1 2 1 C2 6.61 2 12.22 2 18 C-3.94 18 -9.88 18 -16 18 C-16 17.67 -16 17.34 -16 17 C-10.72 17 -5.44 17 0 17 C0 11.39 0 5.78 0 0 Z " fill="#888B8C" transform="translate(20,160)"/>
<path d="M0 0 C5.61 0 11.22 0 17 0 C17 16.83 17 33.66 17 51 C22.61 51 28.22 51 34 51 C34 56.94 34 62.88 34 69 C28.39 69 22.78 69 17 69 C17 79.89 17 90.78 17 102 C28.22 102 39.44 102 51 102 C51 102.33 51 102.66 51 103 C39.45 103 27.9 103 16 103 C16 91.78 16 80.56 16 69 C10.72 69 5.44 69 0 69 C0 79.89 0 90.78 0 102 C-0.33 102 -0.66 102 -1 102 C-1 90.78 -1 79.56 -1 68 C4.61 68 10.22 68 16 68 C16 62.72 16 57.44 16 52 C4.78 52 -6.44 52 -18 52 C-18 46.06 -18 40.12 -18 34 C-12.06 34 -6.12 34 0 34 C0 22.78 0 11.56 0 0 Z " fill="#050505" transform="translate(313,109)"/>
<path d="M0 0 C22.44 0 44.88 0 68 0 C68 5.28 68 10.56 68 16 C51.17 16 34.34 16 17 16 C17 21.94 17 27.88 17 34 C11.39 34 5.78 34 0 34 C0 22.78 0 11.56 0 0 Z " fill="#040404" transform="translate(364,229)"/>
<path d="M0 0 C11.22 0 22.44 0 34 0 C34 5.61 34 11.22 34 17 C39.94 17 45.88 17 52 17 C52 22.61 52 28.22 52 34 C40.45 34 28.9 34 17 34 C17 28.39 17 22.78 17 17 C11.39 17 5.78 17 0 17 C0 11.39 0 5.78 0 0 Z " fill="#F9F8F9" transform="translate(295,297)"/>
<path d="M0 0 C5.61 0 11.22 0 17 0 C17 5.61 17 11.22 17 17 C33.83 17 50.66 17 68 17 C68 17.33 68 17.66 68 18 C62.72 18 57.44 18 52 18 C52 23.28 52 28.56 52 34 C63.22 34 74.44 34 86 34 C86 39.61 86 45.22 86 51 C91.28 51 96.56 51 102 51 C102 45.72 102 40.44 102 35 C102.33 35 102.66 35 103 35 C103 40.61 103 46.22 103 52 C97.06 52 91.12 52 85 52 C85 46.39 85 40.78 85 35 C74.11 35 63.22 35 52 35 C52 40.61 52 46.22 52 52 C46.06 52 40.12 52 34 52 C34 46.06 34 40.12 34 34 C39.28 34 44.56 34 50 34 C50 28.72 50 23.44 50 18 C39.44 18 28.88 18 18 18 C18 23.28 18 28.56 18 34 C17.67 34.33 17.34 34.66 17 35 C11.39 35 5.78 35 0 35 C0 23.45 0 11.9 0 0 Z " fill="#7C7B7C" transform="translate(244,194)"/>
<path d="M0 0 C1.9480957 0.00483398 1.9480957 0.00483398 3.93554688 0.00976562 C5.30729233 0.01812094 6.67903712 0.02658588 8.05078125 0.03515625 C9.4342432 0.0401729 10.81770688 0.04473552 12.20117188 0.04882812 C15.58856021 0.06063087 18.97592615 0.07856658 22.36328125 0.09765625 C22.85828125 8.01765625 22.85828125 8.01765625 23.36328125 16.09765625 C28.64328125 16.42765625 33.92328125 16.75765625 39.36328125 17.09765625 C39.36328125 22.37765625 39.36328125 27.65765625 39.36328125 33.09765625 C28.47328125 33.09765625 17.58328125 33.09765625 6.36328125 33.09765625 C6.36328125 27.48765625 6.36328125 21.87765625 6.36328125 16.09765625 C1.08328125 16.09765625 -4.19671875 16.09765625 -9.63671875 16.09765625 C-9.63671875 11.14765625 -9.63671875 6.19765625 -9.63671875 1.09765625 C-6.21920222 -0.04151593 -3.60183938 -0.01572856 0 0 Z " fill="#020202" transform="translate(426.63671875,194.90234375)"/>
<path d="M0 0 C11.22 0 22.44 0 34 0 C34 11.22 34 22.44 34 34 C28.39 34 22.78 34 17 34 C17 28.39 17 22.78 17 17 C11.39 17 5.78 17 0 17 C0 11.39 0 5.78 0 0 Z " fill="#080808" transform="translate(124,297)"/>
<path d="M0 0 C5.61 0 11.22 0 17 0 C17 16.83 17 33.66 17 51 C11.39 51 5.78 51 0 51 C0 34.17 0 17.34 0 0 Z " fill="#F6F6F6" transform="translate(38,263)"/>
<path d="M0 0 C5.61 0 11.22 0 17 0 C17 16.83 17 33.66 17 51 C11.39 51 5.78 51 0 51 C0 34.17 0 17.34 0 0 Z " fill="#080808" transform="translate(175,143)"/>
<path d="M0 0 C5.28 0 10.56 0 16 0 C16 10.89 16 21.78 16 33 C4.78 33 -6.44 33 -18 33 C-18 27.39 -18 21.78 -18 16 C-12.06 16 -6.12 16 0 16 C0 10.72 0 5.44 0 0 Z " fill="#030303" transform="translate(73,178)"/>
<path d="M0 0 C5.61 0 11.22 0 17 0 C17 5.61 17 11.22 17 17 C22.61 17 28.22 17 34 17 C34 22.28 34 27.56 34 33 C22.78 33 11.56 33 0 33 C0 22.11 0 11.22 0 0 Z " fill="#040404" transform="translate(347,451)"/>
<path d="M0 0 C10.89 0 21.78 0 33 0 C33 5.28 33 10.56 33 16 C27.72 16.33 22.44 16.66 17 17 C16.67 22.28 16.34 27.56 16 33 C10.72 33 5.44 33 0 33 C0 22.11 0 11.22 0 0 Z " fill="#FDFDFD" transform="translate(433,400)"/>
<path d="M0 0 C0.33 0 0.66 0 1 0 C1 5.94 1 11.88 1 18 C-4.61 18 -10.22 18 -16 18 C-16 22.95 -16 27.9 -16 33 C-14.85660156 32.98839844 -13.71320313 32.97679687 -12.53515625 32.96484375 C-11.04427246 32.95546712 -9.55338691 32.94636679 -8.0625 32.9375 C-7.30775391 32.92912109 -6.55300781 32.92074219 -5.77539062 32.91210938 C-3.85005687 32.90347559 -1.92464419 32.94775667 0 33 C1 34 1 34 1.09765625 37.59765625 C1.09191272 39.08597255 1.07889891 40.57426296 1.0625 42.0625 C1.041875 44.681875 1.02125 47.30125 1 50 C6.28 50 11.56 50 17 50 C17 50.33 17 50.66 17 51 C11.72 51 6.44 51 1 51 C1 56.61 1 62.22 1 68 C-4.94 68 -10.88 68 -17 68 C-17 62.39 -17 56.78 -17 51 C-33.83 51 -50.66 51 -68 51 C-68 50.67 -68 50.34 -68 50 C-62.72 50 -57.44 50 -52 50 C-52 39.11 -52 28.22 -52 17 C-51.67 17 -51.34 17 -51 17 C-51 27.89 -51 38.78 -51 50 C-39.78 50 -28.56 50 -17 50 C-17 44.72 -17 39.44 -17 34 C-22.61 34 -28.22 34 -34 34 C-34 33.67 -34 33.34 -34 33 C-28.39 33 -22.78 33 -17 33 C-17 27.72 -17 22.44 -17 17 C-11.39 17 -5.78 17 0 17 C0 11.39 0 5.78 0 0 Z " fill="#7A7B7C" transform="translate(398,434)"/>
<path d="M0 0 C10.89 0 21.78 0 33 0 C33 10.56 33 21.12 33 32 C27.72 32 22.44 32 17 32 C16.67 26.72 16.34 21.44 16 16 C10.72 15.67 5.44 15.34 0 15 C0 10.05 0 5.1 0 0 Z " fill="#010101" transform="translate(193,93)"/>
<path d="M0 0 C19.614375 -0.020625 39.22875 -0.04125 59.4375 -0.0625 C65.64103271 -0.071604 71.84456543 -0.08070801 78.23608398 -0.09008789 C85.78527832 -0.09460449 85.78527832 -0.09460449 89.31434631 -0.09544373 C91.79013753 -0.09698383 94.26592797 -0.10051009 96.74171448 -0.10557556 C100.4820385 -0.11284867 104.2223165 -0.11390757 107.96264648 -0.11352539 C109.0738835 -0.1171235 110.18512053 -0.12072161 111.33003139 -0.12442875 C112.33059598 -0.12305125 113.33116056 -0.12167376 114.36204529 -0.12025452 C115.23867042 -0.12117631 116.11529554 -0.1220981 117.01848507 -0.12304783 C119 0 119 0 120 1 C120.09584998 2.54353131 120.1218807 4.09145108 120.12025452 5.63795471 C120.12232076 7.13880159 120.12232076 7.13880159 120.12442875 8.66996861 C120.11903159 10.33682414 120.11903159 10.33682414 120.11352539 12.03735352 C120.11364593 13.21702415 120.11376646 14.39669477 120.11389065 15.612113 C120.11314106 19.45106291 120.10551075 23.28996496 120.09765625 27.12890625 C120.09618697 29.49084449 120.09516618 31.85278305 120.09460449 34.21472168 C120.08934996 42.9973194 120.0753889 51.77991016 120.0625 60.5625 C120.041875 80.176875 120.02125 99.79125 120 120 C80.4 120 40.8 120 0 120 C0 80.4 0 40.8 0 0 Z M1 2 C1 40.61 1 79.22 1 119 C39.61 119 78.22 119 118 119 C118 80.39 118 41.78 118 2 C79.39 2 40.78 2 1 2 Z " fill="#2C2C2D" transform="translate(4,6)"/>
<path d="M0 0 C11.55 0 23.1 0 35 0 C35 11.55 35 23.1 35 35 C29.39 35 23.78 35 18 35 C18 46.22 18 57.44 18 69 C40.44 69 62.88 69 86 69 C86 74.61 86 80.22 86 86 C85.67 86 85.34 86 85 86 C85 80.72 85 75.44 85 70 C62.89 70 40.78 70 18 70 C18 75.28 18 80.56 18 86 C23.28 86 28.56 86 34 86 C34 86.33 34 86.66 34 87 C28.39 87 22.78 87 17 87 C17 81.39 17 75.78 17 70 C11.72 70 6.44 70 1 70 C1 80.89 1 91.78 1 103 C0.67 103 0.34 103 0 103 C0 91.78 0 80.56 0 69 C5.61 69 11.22 69 17 69 C17 57.78 17 46.56 17 35 C11.39 35 5.78 35 0 35 C0 23.45 0 11.9 0 0 Z M1 2 C1 6.95 1 11.9 1 17 C6.28 17.33 11.56 17.66 17 18 C17.495 25.92 17.495 25.92 18 34 C23.28 34 28.56 34 34 34 C34 23.44 34 12.88 34 2 C23.11 2 12.22 2 1 2 Z " fill="#727273" transform="translate(192,91)"/>
<path d="M0 0 C5.94 0 11.88 0 18 0 C18 5.94 18 11.88 18 18 C12.39 18 6.78 18 1 18 C1.03957157 23.22063275 1.03957157 23.22063275 1.09008789 28.44116211 C1.09723945 30.29433759 1.0502852 32.14749308 1 34 C0 35 0 35 -3.81640625 35.09765625 C-5.39847047 35.09191138 -6.98051031 35.07889593 -8.5625 35.0625 C-12.7390625 35.0315625 -12.7390625 35.0315625 -17 35 C-17 29.06 -17 23.12 -17 17 C-11.39 17 -5.78 17 0 17 C0 11.39 0 5.78 0 0 Z " fill="#030303" transform="translate(329,6)"/>
<path d="M0 0 C5.61 0 11.22 0 17 0 C17 11.55 17 23.1 17 35 C11.39 35 5.78 35 0 35 C0 23.45 0 11.9 0 0 Z " fill="#0E0E0E" transform="translate(278,108)"/>
<path d="M0 0 C5.61 0 11.22 0 17 0 C17 11.55 17 23.1 17 35 C11.39 35 5.78 35 0 35 C0 23.45 0 11.9 0 0 Z " fill="#0B0B0B" transform="translate(175,6)"/>
<path d="M0 0 C5.61 0 11.22 0 17 0 C17 11.22 17 22.44 17 34 C11.39 34 5.78 34 0 34 C0 22.78 0 11.56 0 0 Z " fill="#060607" transform="translate(175,468)"/>
<path d="M0 0 C11.22 0 22.44 0 34 0 C34 5.61 34 11.22 34 17 C22.78 17 11.56 17 0 17 C0 11.39 0 5.78 0 0 Z " fill="#F5F5F5" transform="translate(244,331)"/>
<path d="M0 0 C5.61 0 11.22 0 17 0 C17 11.22 17 22.44 17 34 C11.39 34 5.78 34 0 34 C0 22.78 0 11.56 0 0 Z " fill="#080808" transform="translate(244,109)"/>
<path d="M0 0 C5.61 0 11.22 0 17 0 C17 11.22 17 22.44 17 34 C11.39 34 5.78 34 0 34 C0 22.78 0 11.56 0 0 Z " fill="#060606" transform="translate(347,92)"/>
<path d="M0 0 C11.22 0 22.44 0 34 0 C34 5.61 34 11.22 34 17 C22.78 17 11.56 17 0 17 C0 11.39 0 5.78 0 0 Z " fill="#080808" transform="translate(295,58)"/>
<path d="M0 0 C11.55 0 23.1 0 35 0 C35 5.94 35 11.88 35 18 C29.39 18 23.78 18 18 18 C18 28.89 18 39.78 18 51 C34.5 51 51 51 68 51 C68 45.72 68 40.44 68 35 C62.72 35 57.44 35 52 35 C52 29.06 52 23.12 52 17 C57.61 17 63.22 17 69 17 C69 22.61 69 28.22 69 34 C74.61 34 80.22 34 86 34 C86 34.33 86 34.66 86 35 C80.72 35 75.44 35 70 35 C70 40.61 70 46.22 70 52 C52.84 52 35.68 52 18 52 C18 57.28 18 62.56 18 68 C17.67 68 17.34 68 17 68 C17 62.72 17 57.44 17 52 C11.39 52 5.78 52 0 52 C0 46.39 0 40.78 0 35 C0.33 35 0.66 35 1 35 C1 40.28 1 45.56 1 51 C6.28 51 11.56 51 17 51 C17 39.78 17 28.56 17 17 C22.61 17 28.22 17 34 17 C34 11.72 34 6.44 34 1 C22.78 1 11.56 1 0 1 C0 0.67 0 0.34 0 0 Z " fill="#757677" transform="translate(192,382)"/>
<path d="M0 0 C5.94 0 11.88 0 18 0 C19.59412284 3.18824568 19.10174735 6.62896662 19.0625 10.125 C19.05798828 10.87910156 19.05347656 11.63320312 19.04882812 12.41015625 C19.03703499 14.27347127 19.01909942 16.13674555 19 18 C23.95 18 28.9 18 34 18 C34 12.72 34 7.44 34 2 C34.33 2 34.66 2 35 2 C35 7.61 35 13.22 35 19 C29.39 19 23.78 19 18 19 C18 47.05 18 75.1 18 104 C17.67 104 17.34 104 17 104 C17 75.95 17 47.9 17 19 C11.72 19 6.44 19 1 19 C1 30.22 1 41.44 1 53 C-4.61 53 -10.22 53 -16 53 C-16 52.67 -16 52.34 -16 52 C-10.72 52 -5.44 52 0 52 C0 41.11 0 30.22 0 19 C-5.28 19 -10.56 19 -16 19 C-16 18.67 -16 18.34 -16 18 C-10.72 18 -5.44 18 0 18 C0 12.06 0 6.12 0 0 Z " fill="#6C6E70" transform="translate(20,244)"/>
<path d="M0 0 C10.89 0 21.78 0 33 0 C33 5.28 33 10.56 33 16 C22.11 16 11.22 16 0 16 C0 10.72 0 5.44 0 0 Z " fill="#030404" transform="translate(296,280)"/>
<path d="M0 0 C10.89 0 21.78 0 33 0 C33 5.28 33 10.56 33 16 C22.11 16 11.22 16 0 16 C0 10.72 0 5.44 0 0 Z " fill="#FBFBFB" transform="translate(124,280)"/>
<path d="M0 0 C10.89 0 21.78 0 33 0 C33 5.28 33 10.56 33 16 C22.11 16 11.22 16 0 16 C0 10.72 0 5.44 0 0 Z " fill="#020202" transform="translate(433,246)"/>
<path d="M0 0 C0.33 0 0.66 0 1 0 C1 16.83 1 33.66 1 51 C6.61 51 12.22 51 18 51 C18 56.94 18 62.88 18 69 C12.39 69 6.78 69 1 69 C1 79.89 1 90.78 1 102 C12.22 102 23.44 102 35 102 C35 102.33 35 102.66 35 103 C23.45 103 11.9 103 0 103 C0 91.78 0 80.56 0 69 C-5.28 69 -10.56 69 -16 69 C-16 79.89 -16 90.78 -16 102 C-16.33 102 -16.66 102 -17 102 C-17 90.78 -17 79.56 -17 68 C-11.39 68 -5.78 68 0 68 C0 62.72 0 57.44 0 52 C-11.22 52 -22.44 52 -34 52 C-34 51.67 -34 51.34 -34 51 C-22.78 51 -11.56 51 0 51 C0 34.17 0 17.34 0 0 Z " fill="#737374" transform="translate(329,109)"/>
<path d="M0 0 C0.33 0 0.66 0 1 0 C1 5.61 1 11.22 1 17 C6.28 17 11.56 17 17 17 C17 11.39 17 5.78 17 0 C22.94 0 28.88 0 35 0 C35 5.94 35 11.88 35 18 C29.39 18 23.78 18 18 18 C18.03957157 23.22063275 18.03957157 23.22063275 18.09008789 28.44116211 C18.09723945 30.29433759 18.0502852 32.14749308 18 34 C17 35 17 35 13.85717773 35.11352539 C12.46597304 35.11327441 11.07476209 35.10771709 9.68359375 35.09765625 C9.03588013 35.09664917 8.3881665 35.09564209 7.7208252 35.09460449 C5.29303221 35.08935843 2.86526439 35.07539725 0.4375 35.0625 C-7.6990625 35.0315625 -7.6990625 35.0315625 -16 35 C-16 45.89 -16 56.78 -16 68 C-16.33 68 -16.66 68 -17 68 C-17 56.45 -17 44.9 -17 33 C-5.78 33 5.44 33 17 33 C17 28.05 17 23.1 17 18 C11.39 18 5.78 18 0 18 C0 12.06 0 6.12 0 0 Z " fill="#080808" transform="translate(415,143)"/>
<path d="M0 0 C1.43352212 0.00015908 2.86704998 0.00585132 4.30053711 0.01586914 C5.43041298 0.01799156 5.43041298 0.01799156 6.58311462 0.02015686 C8.99807646 0.02577163 11.41294687 0.03832656 13.82788086 0.05102539 C15.46134307 0.05603849 17.09480672 0.06060173 18.72827148 0.06469727 C22.74070516 0.07489664 26.75294021 0.09446894 30.76538086 0.11352539 C30.76538086 5.72352539 30.76538086 11.33352539 30.76538086 17.11352539 C36.37538086 17.11352539 41.98538086 17.11352539 47.76538086 17.11352539 C47.76538086 23.05352539 47.76538086 28.99352539 47.76538086 35.11352539 C36.54538086 35.11352539 25.32538086 35.11352539 13.76538086 35.11352539 C13.76538086 40.39352539 13.76538086 45.67352539 13.76538086 51.11352539 C24.98538086 51.11352539 36.20538086 51.11352539 47.76538086 51.11352539 C47.76538086 56.72352539 47.76538086 62.33352539 47.76538086 68.11352539 C53.37538086 68.11352539 58.98538086 68.11352539 64.76538086 68.11352539 C64.76538086 68.44352539 64.76538086 68.77352539 64.76538086 69.11352539 C47.60538086 69.11352539 30.44538086 69.11352539 12.76538086 69.11352539 C12.76538086 63.50352539 12.76538086 57.89352539 12.76538086 52.11352539 C-4.06461914 52.11352539 -20.89461914 52.11352539 -38.23461914 52.11352539 C-38.23461914 51.78352539 -38.23461914 51.45352539 -38.23461914 51.11352539 C-21.40461914 51.11352539 -4.57461914 51.11352539 12.76538086 51.11352539 C12.76538086 45.83352539 12.76538086 40.55352539 12.76538086 35.11352539 C-15.28461914 35.11352539 -43.33461914 35.11352539 -72.23461914 35.11352539 C-72.23461914 34.78352539 -72.23461914 34.45352539 -72.23461914 34.11352539 C-44.18461914 34.11352539 -16.13461914 34.11352539 12.76538086 34.11352539 C12.76538086 28.83352539 12.76538086 23.55352539 12.76538086 18.11352539 C7.15538086 18.11352539 1.54538086 18.11352539 -4.23461914 18.11352539 C-4.25524414 15.32915039 -4.27586914 12.54477539 -4.29711914 9.67602539 C-4.30622314 8.79760986 -4.31532715 7.91919434 -4.32470703 7.01416016 C-4.33185005 5.04706565 -4.28493807 3.07998918 -4.23461914 1.11352539 C-3.23461914 0.11352539 -3.23461914 0.11352539 0 0 Z M-2.23461914 2.11352539 C-2.23461914 7.06352539 -2.23461914 12.01352539 -2.23461914 17.11352539 C3.04538086 17.11352539 8.32538086 17.11352539 13.76538086 17.11352539 C13.76538086 22.72352539 13.76538086 28.33352539 13.76538086 34.11352539 C24.65538086 34.11352539 35.54538086 34.11352539 46.76538086 34.11352539 C46.76538086 28.83352539 46.76538086 23.55352539 46.76538086 18.11352539 C41.48538086 17.78352539 36.20538086 17.45352539 30.76538086 17.11352539 C30.43538086 11.83352539 30.10538086 6.55352539 29.76538086 1.11352539 C25.69022185 1.09055956 21.61522792 1.0706491 17.54003906 1.05859375 C16.15396361 1.05356763 14.76789345 1.04674573 13.38183594 1.03808594 C11.38861371 1.02594521 9.39535267 1.02081518 7.40209961 1.01586914 C6.20286865 1.01063232 5.0036377 1.00539551 3.76806641 1 C0.71381635 0.97506921 0.71381635 0.97506921 -2.23461914 2.11352539 Z M13.76538086 52.11352539 C13.76538086 57.39352539 13.76538086 62.67352539 13.76538086 68.11352539 C24.65538086 68.11352539 35.54538086 68.11352539 46.76538086 68.11352539 C46.76538086 62.83352539 46.76538086 57.55352539 46.76538086 52.11352539 C35.87538086 52.11352539 24.98538086 52.11352539 13.76538086 52.11352539 Z " fill="#7C7B7B" transform="translate(419.234619140625,193.886474609375)"/>
<path d="M0 0 C5.61 0 11.22 0 17 0 C17 11.22 17 22.44 17 34 C22.61 34 28.22 34 34 34 C34 39.94 34 45.88 34 52 C28.39 52 22.78 52 17 52 C17 46.39 17 40.78 17 35 C5.78 35 -5.44 35 -17 35 C-17 34.67 -17 34.34 -17 34 C-6.11 34 4.78 34 16 34 C16 23.11 16 12.22 16 1 C11.05 1 6.1 1 1 1 C1 6.28 1 11.56 1 17 C0.67 17 0.34 17 0 17 C0 11.39 0 5.78 0 0 Z " fill="#DDDEDF" transform="translate(158,382)"/>
<path d="M0 0 C4.1765625 -0.0309375 4.1765625 -0.0309375 8.4375 -0.0625 C9.75512329 -0.07615601 9.75512329 -0.07615601 11.09936523 -0.09008789 C13.06645974 -0.09723091 15.03353621 -0.05031893 17 0 C18 1 18 1 18.09765625 4.81640625 C18.09191138 6.39847047 18.07889593 7.98051031 18.0625 9.5625 C18.041875 12.346875 18.02125 15.13125 18 18 C12.06 18 6.12 18 0 18 C0 12.06 0 6.12 0 0 Z " fill="#1A1A1A" transform="translate(484,228)"/>
<path d="M0 0 C5.94 0 11.88 0 18 0 C18 5.61 18 11.22 18 17 C12.06 17 6.12 17 0 17 C0 11.39 0 5.78 0 0 Z " fill="#141515" transform="translate(381,382)"/>
<path d="M0 0 C5.61 0 11.22 0 17 0 C17 5.94 17 11.88 17 18 C11.39 18 5.78 18 0 18 C0 12.06 0 6.12 0 0 Z " fill="#EDECED" transform="translate(244,40)"/>
<path d="M0 0 C5.61 0 11.22 0 17 0 C17 5.94 17 11.88 17 18 C11.39 18 5.78 18 0 18 C0 12.06 0 6.12 0 0 Z " fill="#151616" transform="translate(141,23)"/>
<path d="M0 0 C5.61 0 11.22 0 17 0 C17 5.61 17 11.22 17 17 C11.39 17 5.78 17 0 17 C0 11.39 0 5.78 0 0 Z " fill="#0A0A0A" transform="translate(330,485)"/>
<path d="M0 0 C5.61 0 11.22 0 17 0 C17 5.61 17 11.22 17 17 C11.39 17 5.78 17 0 17 C0 11.39 0 5.78 0 0 Z " fill="#090909" transform="translate(295,485)"/>
<path d="M0 0 C5.61 0 11.22 0 17 0 C17 5.61 17 11.22 17 17 C11.39 17 5.78 17 0 17 C0 11.39 0 5.78 0 0 Z " fill="#0A0A0A" transform="translate(244,485)"/>
<path d="M0 0 C5.61 0 11.22 0 17 0 C17 5.61 17 11.22 17 17 C11.39 17 5.78 17 0 17 C0 11.39 0 5.78 0 0 Z " fill="#0A0A0A" transform="translate(295,382)"/>
<path d="M0 0 C5.61 0 11.22 0 17 0 C17 5.61 17 11.22 17 17 C11.39 17 5.78 17 0 17 C0 11.39 0 5.78 0 0 Z " fill="#0D0D0D" transform="translate(261,382)"/>
<path d="M0 0 C5.61 0 11.22 0 17 0 C17 5.61 17 11.22 17 17 C11.39 17 5.78 17 0 17 C0 11.39 0 5.78 0 0 Z " fill="#F3F3F4" transform="translate(295,331)"/>
<path d="M0 0 C5.61 0 11.22 0 17 0 C17 5.61 17 11.22 17 17 C11.39 17 5.78 17 0 17 C0 11.39 0 5.78 0 0 Z " fill="#080808" transform="translate(295,314)"/>
<path d="M0 0 C5.61 0 11.22 0 17 0 C17 5.61 17 11.22 17 17 C11.39 17 5.78 17 0 17 C0 11.39 0 5.78 0 0 Z " fill="#070707" transform="translate(175,314)"/>
<path d="M0 0 C5.61 0 11.22 0 17 0 C17 5.61 17 11.22 17 17 C11.39 17 5.78 17 0 17 C0 11.39 0 5.78 0 0 Z " fill="#F8F8F8" transform="translate(364,314)"/>
<path d="M0 0 C5.61 0 11.22 0 17 0 C17 5.61 17 11.22 17 17 C11.39 17 5.78 17 0 17 C0 11.39 0 5.78 0 0 Z " fill="#FBFAFA" transform="translate(72,314)"/>
<path d="M0 0 C5.61 0 11.22 0 17 0 C17 5.61 17 11.22 17 17 C11.39 17 5.78 17 0 17 C0 11.39 0 5.78 0 0 Z " fill="#0A0A0A" transform="translate(484,297)"/>
<path d="M0 0 C5.61 0 11.22 0 17 0 C17 5.61 17 11.22 17 17 C11.39 17 5.78 17 0 17 C0 11.39 0 5.78 0 0 Z " fill="#F9F8F8" transform="translate(347,297)"/>
<path d="M0 0 C5.61 0 11.22 0 17 0 C17 5.61 17 11.22 17 17 C11.39 17 5.78 17 0 17 C0 11.39 0 5.78 0 0 Z " fill="#F4F4F5" transform="translate(107,297)"/>
<path d="M0 0 C5.61 0 11.22 0 17 0 C17 5.61 17 11.22 17 17 C11.39 17 5.78 17 0 17 C0 11.39 0 5.78 0 0 Z " fill="#0E0F0F" transform="translate(244,263)"/>
<path d="M0 0 C5.61 0 11.22 0 17 0 C17 5.61 17 11.22 17 17 C11.39 17 5.78 17 0 17 C0 11.39 0 5.78 0 0 Z " fill="#0E0E0F" transform="translate(261,246)"/>
<path d="M0 0 C5.61 0 11.22 0 17 0 C17 5.61 17 11.22 17 17 C11.39 17 5.78 17 0 17 C0 11.39 0 5.78 0 0 Z " fill="#070707" transform="translate(467,194)"/>
<path d="M0 0 C5.61 0 11.22 0 17 0 C17 5.61 17 11.22 17 17 C11.39 17 5.78 17 0 17 C0 11.39 0 5.78 0 0 Z " fill="#F2F3F4" transform="translate(244,194)"/>
<path d="M0 0 C5.61 0 11.22 0 17 0 C17 5.61 17 11.22 17 17 C11.39 17 5.78 17 0 17 C0 11.39 0 5.78 0 0 Z " fill="#F2F3F3" transform="translate(38,194)"/>
<path d="M0 0 C5.61 0 11.22 0 17 0 C17 5.61 17 11.22 17 17 C11.39 17 5.78 17 0 17 C0 11.39 0 5.78 0 0 Z " fill="#080808" transform="translate(467,143)"/>
<path d="M0 0 C5.61 0 11.22 0 17 0 C17 5.61 17 11.22 17 17 C11.39 17 5.78 17 0 17 C0 11.39 0 5.78 0 0 Z " fill="#F5F5F6" transform="translate(175,143)"/>
<path d="M0 0 C5.61 0 11.22 0 17 0 C17 5.61 17 11.22 17 17 C11.39 17 5.78 17 0 17 C0 11.39 0 5.78 0 0 Z " fill="#F6F5F5" transform="translate(192,109)"/>
<path d="M0 0 C5.61 0 11.22 0 17 0 C17 5.61 17 11.22 17 17 C11.39 17 5.78 17 0 17 C0 11.39 0 5.78 0 0 Z " fill="#F2F2F3" transform="translate(158,109)"/>
<path d="M0 0 C5.61 0 11.22 0 17 0 C17 5.61 17 11.22 17 17 C11.39 17 5.78 17 0 17 C0 11.39 0 5.78 0 0 Z " fill="#080808" transform="translate(347,58)"/>
<path d="M0 0 C5.61 0 11.22 0 17 0 C17 5.61 17 11.22 17 17 C13.0709375 17.0309375 13.0709375 17.0309375 9.0625 17.0625 C8.2362915 17.071604 7.41008301 17.08070801 6.55883789 17.09008789 C4.70566241 17.09723945 2.85250692 17.0502852 1 17 C0 16 0 16 -0.09765625 12.40234375 C-0.09191272 10.91402745 -0.07889891 9.42573704 -0.0625 7.9375 C-0.041875 5.318125 -0.02125 2.69875 0 0 Z " fill="#101111" transform="translate(398,263)"/>
<path d="M0 0 C5.61 0 11.22 0 17 0 C17 5.28 17 10.56 17 16 C11.39 16 5.78 16 0 16 C0 10.72 0 5.44 0 0 Z " fill="#070707" transform="translate(295,451)"/>
<path d="M0 0 C5.28 0 10.56 0 16 0 C16 5.61 16 11.22 16 17 C10.72 17 5.44 17 0 17 C0 11.39 0 5.78 0 0 Z " fill="#FBFAFA" transform="translate(279,314)"/>
<path d="M0 0 C5.28 0 10.56 0 16 0 C16 5.61 16 11.22 16 17 C10.72 17 5.44 17 0 17 C0 11.39 0 5.78 0 0 Z " fill="#080808" transform="translate(279,297)"/>
<path d="M0 0 C5.61 0 11.22 0 17 0 C17 5.28 17 10.56 17 16 C11.39 16 5.78 16 0 16 C0 10.72 0 5.44 0 0 Z " fill="#F7F7F7" transform="translate(330,280)"/>
<path d="M0 0 C5.61 0 11.22 0 17 0 C17 5.28 17 10.56 17 16 C11.39 16 5.78 16 0 16 C0 10.72 0 5.44 0 0 Z " fill="#050505" transform="translate(467,263)"/>
<path d="M0 0 C5.61 0 11.22 0 17 0 C17 5.28 17 10.56 17 16 C11.39 16 5.78 16 0 16 C0 10.72 0 5.44 0 0 Z " fill="#FAFAFA" transform="translate(55,178)"/>
<path d="M0 0 C5.61 0 11.22 0 17 0 C17 5.28 17 10.56 17 16 C11.39 16 5.78 16 0 16 C0 10.72 0 5.44 0 0 Z " fill="#080808" transform="translate(484,161)"/>
<path d="M0 0 C5.61 0 11.22 0 17 0 C17 5.28 17 10.56 17 16 C11.39 16 5.78 16 0 16 C0 10.72 0 5.44 0 0 Z " fill="#F9F8F9" transform="translate(72,161)"/>
<path d="M0 0 C5.28 0 10.56 0 16 0 C16 5.28 16 10.56 16 16 C10.72 16 5.44 16 0 16 C0 10.72 0 5.44 0 0 Z " fill="#040404" transform="translate(313,468)"/>
<path d="M0 0 C5.28 0 10.56 0 16 0 C16 5.28 16 10.56 16 16 C10.72 16 5.44 16 0 16 C0 10.72 0 5.44 0 0 Z " fill="#020202" transform="translate(313,434)"/>
<path d="M0 0 C5.28 0 10.56 0 16 0 C16 5.28 16 10.56 16 16 C10.72 16 5.44 16 0 16 C0 10.72 0 5.44 0 0 Z " fill="#FDFDFD" transform="translate(296,434)"/>
<path d="M0 0 C5.28 0 10.56 0 16 0 C16 5.28 16 10.56 16 16 C10.72 16 5.44 16 0 16 C0 10.72 0 5.44 0 0 Z " fill="#020202" transform="translate(296,417)"/>
<path d="M0 0 C5.28 0 10.56 0 16 0 C16 5.28 16 10.56 16 16 C10.72 16 5.44 16 0 16 C0 10.72 0 5.44 0 0 Z " fill="#030303" transform="translate(313,400)"/>
<path d="M0 0 C5.28 0 10.56 0 16 0 C16 5.28 16 10.56 16 16 C10.72 16 5.44 16 0 16 C0 10.72 0 5.44 0 0 Z " fill="#040404" transform="translate(244,400)"/>
<path d="M0 0 C5.28 0 10.56 0 16 0 C16 5.28 16 10.56 16 16 C10.72 16 5.44 16 0 16 C0 10.72 0 5.44 0 0 Z " fill="#030303" transform="translate(416,297)"/>
<path d="M0 0 C5.28 0 10.56 0 16 0 C16 5.28 16 10.56 16 16 C10.72 16 5.44 16 0 16 C0 10.72 0 5.44 0 0 Z " fill="#030303" transform="translate(330,297)"/>
<path d="M0 0 C5.28 0 10.56 0 16 0 C16 5.28 16 10.56 16 16 C10.72 16 5.44 16 0 16 C0 10.72 0 5.44 0 0 Z " fill="#040404" transform="translate(330,263)"/>
<path d="M0 0 C5.28 0 10.56 0 16 0 C16 5.28 16 10.56 16 16 C10.72 16 5.44 16 0 16 C0 10.72 0 5.44 0 0 Z " fill="#FAFBFB" transform="translate(21,246)"/>
<path d="M0 0 C5.28 0 10.56 0 16 0 C16 5.28 16 10.56 16 16 C10.72 16 5.44 16 0 16 C0 10.72 0 5.44 0 0 Z " fill="#040404" transform="translate(279,229)"/>
<path d="M0 0 C5.28 0 10.56 0 16 0 C16 5.28 16 10.56 16 16 C10.72 16 5.44 16 0 16 C0 10.72 0 5.44 0 0 Z " fill="#FCFCFC" transform="translate(107,229)"/>
<path d="M0 0 C5.28 0 10.56 0 16 0 C16 5.28 16 10.56 16 16 C10.72 16 5.44 16 0 16 C0 10.72 0 5.44 0 0 Z " fill="#040404" transform="translate(244,212)"/>
<path d="M0 0 C5.28 0 10.56 0 16 0 C16 5.28 16 10.56 16 16 C10.72 16 5.44 16 0 16 C0 10.72 0 5.44 0 0 Z " fill="#040404" transform="translate(330,75)"/>
<path d="M0 0 C5.28 0 10.56 0 16 0 C16 5.28 16 10.56 16 16 C10.72 16 5.44 16 0 16 C0 10.72 0 5.44 0 0 Z " fill="#020202" transform="translate(330,7)"/>
<path d="M0 0 C23.1 0 46.2 0 70 0 C70 5.61 70 11.22 70 17 C69.67 17 69.34 17 69 17 C69 11.72 69 6.44 69 1 C57.78 1 46.56 1 35 1 C35 6.61 35 12.22 35 18 C29.39 18 23.78 18 18 18 C18 23.61 18 29.22 18 35 C12.39 35 6.78 35 1 35 C1 40.61 1 46.22 1 52 C-1.784375 52.020625 -4.56875 52.04125 -7.4375 52.0625 C-8.31591553 52.071604 -9.19433105 52.08070801 -10.09936523 52.09008789 C-12.06645974 52.09723091 -14.03353621 52.05031893 -16 52 C-17 51 -17 51 -17.09765625 47.18359375 C-17.09191138 45.60152953 -17.07889593 44.01948969 -17.0625 42.4375 C-17.0315625 38.2609375 -17.0315625 38.2609375 -17 34 C-11.39 34 -5.78 34 0 34 C0 22.78 0 11.56 0 0 Z M1 1 C1 11.89 1 22.78 1 34 C6.28 34 11.56 34 17 34 C17.33 28.72 17.66 23.44 18 18 C23.28 17.67 28.56 17.34 34 17 C34 11.72 34 6.44 34 1 C23.11 1 12.22 1 1 1 Z M-16 35 C-16 40.28 -16 45.56 -16 51 C-10.72 51 -5.44 51 0 51 C0 45.72 0 40.44 0 35 C-5.28 35 -10.56 35 -16 35 Z " fill="#8B8C8D" transform="translate(432,399)"/>
<path d="M0 0 C4.95 0 9.9 0 15 0 C15 5.28 15 10.56 15 16 C10.05 16 5.1 16 0 16 C0 10.72 0 5.44 0 0 Z " fill="#020202" transform="translate(382,485)"/>
<path d="M0 0 C5.28 0 10.56 0 16 0 C16 4.95 16 9.9 16 15 C10.72 15 5.44 15 0 15 C0 10.05 0 5.1 0 0 Z " fill="#010101" transform="translate(107,349)"/>
<path d="M0 0 C5.28 0 10.56 0 16 0 C16 4.95 16 9.9 16 15 C10.72 15 5.44 15 0 15 C0 10.05 0 5.1 0 0 Z " fill="#010101" transform="translate(107,281)"/>
<path d="M0 0 C4.95 0 9.9 0 15 0 C15 5.28 15 10.56 15 16 C10.05 16 5.1 16 0 16 C0 10.72 0 5.44 0 0 Z " fill="#FEFEFE" transform="translate(22,212)"/>
<path d="M0 0 C4.95 0 9.9 0 15 0 C15 5.28 15 10.56 15 16 C10.05 16 5.1 16 0 16 C0 10.72 0 5.44 0 0 Z " fill="#010101" transform="translate(22,195)"/>
<path d="M0 0 C5.28 0 10.56 0 16 0 C16 4.95 16 9.9 16 15 C10.72 15 5.44 15 0 15 C0 10.05 0 5.1 0 0 Z " fill="#010101" transform="translate(330,161)"/>
<path d="M0 0 C5.28 0 10.56 0 16 0 C16 4.95 16 9.9 16 15 C10.72 15 5.44 15 0 15 C0 10.05 0 5.1 0 0 Z " fill="#FDFDFD" transform="translate(107,161)"/>
<path d="M0 0 C5.28 0 10.56 0 16 0 C16 4.95 16 9.9 16 15 C10.72 15 5.44 15 0 15 C0 10.05 0 5.1 0 0 Z " fill="#020202" transform="translate(90,161)"/>
<path d="M0 0 C0.33 0 0.66 0 1 0 C1 5.61 1 11.22 1 17 C6.61 17 12.22 17 18 17 C18 22.94 18 28.88 18 35 C15.215625 35.020625 12.43125 35.04125 9.5625 35.0625 C8.68408447 35.071604 7.80566895 35.08070801 6.90063477 35.09008789 C4.93354026 35.09723091 2.96646379 35.05031893 1 35 C0 34 0 34 -0.09765625 30.40234375 C-0.09191272 28.91402745 -0.07889891 27.42573704 -0.0625 25.9375 C-0.041875 23.318125 -0.02125 20.69875 0 18 C-5.28 18 -10.56 18 -16 18 C-15.96042843 23.22063275 -15.96042843 23.22063275 -15.90991211 28.44116211 C-15.90276055 30.29433759 -15.9497148 32.14749308 -16 34 C-17 35 -17 35 -20.81640625 35.09765625 C-22.39847047 35.09191138 -23.98051031 35.07889593 -25.5625 35.0625 C-29.7390625 35.0315625 -29.7390625 35.0315625 -34 35 C-34 29.39 -34 23.78 -34 18 C-45.22 18 -56.44 18 -68 18 C-68 17.67 -68 17.34 -68 17 C-56.45 17 -44.9 17 -33 17 C-33 22.28 -33 27.56 -33 33 C-27.72 33 -22.44 33 -17 33 C-17 27.39 -17 21.78 -17 16 C-11.39 16 -5.78 16 0 16 C0 10.72 0 5.44 0 0 Z M1 18 C1 22.95 1 27.9 1 33 C6.28 33 11.56 33 17 33 C17 28.05 17 23.1 17 18 C11.72 18 6.44 18 1 18 Z " fill="#727374" transform="translate(106,331)"/>
<path d="M0 0 C4.95 0 9.9 0 15 0 C15 4.95 15 9.9 15 15 C10.05 15 5.1 15 0 15 C0 10.05 0 5.1 0 0 Z " fill="#FEFEFE" transform="translate(382,469)"/>
<path d="M0 0 C0.33 0 0.66 0 1 0 C1 5.61 1 11.22 1 17 C6.28 17 11.56 17 17 17 C17 11.39 17 5.78 17 0 C17.33 0 17.66 0 18 0 C18 5.61 18 11.22 18 17 C23.28 17 28.56 17 34 17 C34 11.39 34 5.78 34 0 C34.33 0 34.66 0 35 0 C35 5.94 35 11.88 35 18 C29.39 18 23.78 18 18 18 C18.03957157 23.22063275 18.03957157 23.22063275 18.09008789 28.44116211 C18.09723945 30.29433759 18.0502852 32.14749308 18 34 C17 35 17 35 13.85717773 35.11352539 C12.46597304 35.11327441 11.07476209 35.10771709 9.68359375 35.09765625 C9.03588013 35.09664917 8.3881665 35.09564209 7.7208252 35.09460449 C5.29303221 35.08935843 2.86526439 35.07539725 0.4375 35.0625 C-7.6990625 35.0315625 -7.6990625 35.0315625 -16 35 C-16 45.89 -16 56.78 -16 68 C-16.33 68 -16.66 68 -17 68 C-17 56.45 -17 44.9 -17 33 C-5.78 33 5.44 33 17 33 C17 28.05 17 23.1 17 18 C11.39 18 5.78 18 0 18 C0 12.06 0 6.12 0 0 Z " fill="#7B7D7E" transform="translate(415,143)"/>
<path d="M0 0 C17.16 0 34.32 0 52 0 C52 0.33 52 0.66 52 1 C35.17 1 18.34 1 1 1 C1 6.28 1 11.56 1 17 C6.61 17 12.22 17 18 17 C18 28.55 18 40.1 18 52 C17.67 52 17.34 52 17 52 C17 40.78 17 29.56 17 18 C11.72 18 6.44 18 1 18 C1 23.61 1 29.22 1 35 C-4.94 35 -10.88 35 -17 35 C-17 29.06 -17 23.12 -17 17 C-11.39 17 -5.78 17 0 17 C0 11.39 0 5.78 0 0 Z M-16 18 C-16 23.28 -16 28.56 -16 34 C-10.72 34 -5.44 34 0 34 C0 28.72 0 23.44 0 18 C-5.28 18 -10.56 18 -16 18 Z " fill="#797A7B" transform="translate(432,279)"/>
<path d="M0 0 C0.33 0 0.66 0 1 0 C1 5.28 1 10.56 1 16 C12.22 16 23.44 16 35 16 C35 21.61 35 27.22 35 33 C40.61 33 46.22 33 52 33 C52 33.33 52 33.66 52 34 C34.84 34 17.68 34 0 34 C0 28.39 0 22.78 0 17 C-16.83 17 -33.66 17 -51 17 C-51 16.67 -51 16.34 -51 16 C-34.17 16 -17.34 16 0 16 C0 10.72 0 5.44 0 0 Z M1 17 C1 22.28 1 27.56 1 33 C11.89 33 22.78 33 34 33 C34 27.72 34 22.44 34 17 C23.11 17 12.22 17 1 17 Z " fill="#747475" transform="translate(432,229)"/>
<path d="M0 0 C0.33 0 0.66 0 1 0 C1 10.89 1 21.78 1 33 C17.83 33 34.66 33 52 33 C52 33.33 52 33.66 52 34 C35.17 34 18.34 34 1 34 C1 39.61 1 45.22 1 51 C0.67 51 0.34 51 0 51 C0 45.39 0 39.78 0 34 C-5.61 34 -11.22 34 -17 34 C-17 28.72 -17 23.44 -17 18 C-22.28 18 -27.56 18 -33 18 C-33 23.28 -33 28.56 -33 34 C-33.33 34 -33.66 34 -34 34 C-34 28.06 -34 22.12 -34 16 C-29.8234375 15.9690625 -29.8234375 15.9690625 -25.5625 15.9375 C-24.24487671 15.92384399 -24.24487671 15.92384399 -22.90063477 15.90991211 C-20.93354026 15.90276909 -18.96646379 15.94968107 -17 16 C-16 17 -16 17 -15.90234375 20.59765625 C-15.90808728 22.08597255 -15.92110109 23.57426296 -15.9375 25.0625 C-15.958125 27.681875 -15.97875 30.30125 -16 33 C-10.72 33 -5.44 33 0 33 C0 22.11 0 11.22 0 0 Z " fill="#8E9090" transform="translate(209,263)"/>
<path d="M0 0 C0.33 0 0.66 0 1 0 C1 5.61 1 11.22 1 17 C6.61 17 12.22 17 18 17 C18 28.22 18 39.44 18 51 C34.83 51 51.66 51 69 51 C69 51.33 69 51.66 69 52 C51.84 52 34.68 52 17 52 C17 40.78 17 29.56 17 18 C11.72 18 6.44 18 1 18 C1 23.28 1 28.56 1 34 C0.67 34 0.34 34 0 34 C0 28.72 0 23.44 0 18 C-5.28 18 -10.56 18 -16 18 C-16 23.28 -16 28.56 -16 34 C-16.33 34 -16.66 34 -17 34 C-17 28.39 -17 22.78 -17 17 C-11.39 17 -5.78 17 0 17 C0 11.39 0 5.78 0 0 Z " fill="#7E7D7E" transform="translate(329,382)"/>
<path d="M0 0 C0.33 0 0.66 0 1 0 C1 5.28 1 10.56 1 16 C6.28 16 11.56 16 17 16 C17 10.72 17 5.44 17 0 C17.33 0 17.66 0 18 0 C18 10.89 18 21.78 18 33 C23.61 33 29.22 33 35 33 C35 33.33 35 33.66 35 34 C29.39 34 23.78 34 18 34 C18 45.22 18 56.44 18 68 C17.67 68 17.34 68 17 68 C17 57.11 17 46.22 17 35 C11.39 35 5.78 35 0 35 C0 23.45 0 11.9 0 0 Z M1 17 C1 22.28 1 27.56 1 33 C6.28 33 11.56 33 17 33 C17 27.72 17 22.44 17 17 C11.72 17 6.44 17 1 17 Z " fill="#989A9A" transform="translate(329,58)"/>
<path d="M0 0 C11.55 0 23.1 0 35 0 C35 0.33 35 0.66 35 1 C24.11 1 13.22 1 2 1 C2 5.95 2 10.9 2 16 C3.14339844 15.98839844 4.28679687 15.97679687 5.46484375 15.96484375 C6.95572754 15.95546712 8.44661309 15.94636679 9.9375 15.9375 C11.06961914 15.92493164 11.06961914 15.92493164 12.22460938 15.91210938 C14.14994313 15.90347559 16.07535581 15.94775667 18 16 C19 17 19 17 19.11352539 20.23461914 C19.11336631 21.66814126 19.10767407 23.10166912 19.09765625 24.53515625 C19.0962413 25.28840683 19.09482635 26.04165741 19.09336853 26.81773376 C19.08775376 29.2326956 19.07519883 31.64756601 19.0625 34.0625 C19.0574869 35.69596221 19.05292366 37.32942586 19.04882812 38.96289062 C19.03777954 42.97529585 19.02050506 46.98763241 19 51 C18.67 51 18.34 51 18 51 C18 40.11 18 29.22 18 18 C12.45026879 18.03957481 12.45026879 18.03957481 6.90063477 18.09008789 C4.93354026 18.09723091 2.96646379 18.05031893 1 18 C0.67 17.67 0.34 17.34 0 17 C0 11.39 0 5.78 0 0 Z " fill="#9D9FA1" transform="translate(140,160)"/>
<path d="M0 0 C5.94 0 11.88 0 18 0 C18 5.94 18 11.88 18 18 C12.39 18 6.78 18 1 18 C1.03957157 23.22063275 1.03957157 23.22063275 1.09008789 28.44116211 C1.09723945 30.29433759 1.0502852 32.14749308 1 34 C0 35 0 35 -3.81640625 35.09765625 C-5.39847047 35.09191138 -6.98051031 35.07889593 -8.5625 35.0625 C-12.7390625 35.0315625 -12.7390625 35.0315625 -17 35 C-17 29.06 -17 23.12 -17 17 C-11.39 17 -5.78 17 0 17 C0 11.39 0 5.78 0 0 Z M1 1 C1 6.28 1 11.56 1 17 C6.28 17 11.56 17 17 17 C17 11.72 17 6.44 17 1 C11.72 1 6.44 1 1 1 Z M-16 18 C-16 23.28 -16 28.56 -16 34 C-10.72 34 -5.44 34 0 34 C0 28.72 0 23.44 0 18 C-5.28 18 -10.56 18 -16 18 Z " fill="#747374" transform="translate(329,6)"/>
<path d="M0 0 C0.33 0 0.66 0 1 0 C1 5.28 1 10.56 1 16 C6.28 16 11.56 16 17 16 C17 11.05 17 6.1 17 1 C17.33 1 17.66 1 18 1 C18 11.89 18 22.78 18 34 C17.67 34 17.34 34 17 34 C17 28.39 17 22.78 17 17 C11.72 17 6.44 17 1 17 C1 22.61 1 28.22 1 34 C0.67 34 0.34 34 0 34 C0 28.39 0 22.78 0 17 C-5.61 17 -11.22 17 -17 17 C-17 16.67 -17 16.34 -17 16 C-11.39 16 -5.78 16 0 16 C0 10.72 0 5.44 0 0 Z " fill="#858283" transform="translate(312,468)"/>
<path d="M0 0 C1.43352212 0.00015908 2.86704998 0.00585132 4.30053711 0.01586914 C5.43041298 0.01799156 5.43041298 0.01799156 6.58311462 0.02015686 C8.99807646 0.02577163 11.41294687 0.03832656 13.82788086 0.05102539 C15.46134307 0.05603849 17.09480672 0.06060173 18.72827148 0.06469727 C22.74070516 0.07489664 26.75294021 0.09446894 30.76538086 0.11352539 C30.76538086 5.72352539 30.76538086 11.33352539 30.76538086 17.11352539 C30.43538086 17.11352539 30.10538086 17.11352539 29.76538086 17.11352539 C29.76538086 11.83352539 29.76538086 6.55352539 29.76538086 1.11352539 C13.92538086 1.60852539 13.92538086 1.60852539 -2.23461914 2.11352539 C-2.23461914 7.06352539 -2.23461914 12.01352539 -2.23461914 17.11352539 C-2.89461914 17.11352539 -3.55461914 17.11352539 -4.23461914 17.11352539 C-4.26146593 14.46762525 -4.28138271 11.82199443 -4.29711914 9.17602539 C-4.30549805 8.4212793 -4.31387695 7.6665332 -4.32250977 6.88891602 C-4.33114355 4.96358226 -4.28686247 3.03816958 -4.23461914 1.11352539 C-3.23461914 0.11352539 -3.23461914 0.11352539 0 0 Z " fill="#49494A" transform="translate(419.234619140625,193.886474609375)"/>
</svg>
